<svg width="15" height="15" viewBox="0 0 15 15" fill="none" xmlns="http://www.w3.org/2000/svg">
    <path fill-rule="evenodd" clip-rule="evenodd"
        d="M7.5 15C11.6421 15 15 11.6421 15 7.5C15 3.35786 11.6421 0 7.5 0C3.35786 0 0 3.35786 0 7.5C0 11.6421 3.35786 15 7.5 15ZM8.14635 5.06468C8.74401 5.06468 9.22852 4.58018 9.22852 3.98252C9.22852 3.38486 8.74401 2.90035 8.14635 2.90035C7.54869 2.90035 7.06419 3.38486 7.06419 3.98252C7.06419 4.58018 7.54869 5.06468 8.14635 5.06468ZM5.42591 6.52303L5.3207 6.98896C6.24167 6.7303 6.46289 6.8053 6.61329 7.09419C6.68553 7.56935 6.6516 7.84821 6.5231 8.35671L5.99705 10.1754C5.99705 10.1754 5.69645 10.987 6.19244 11.6633C6.68844 12.3397 7.7348 12.1839 9.04816 11.6633H9.06319L9.19846 11.1824L9.19824 11.1742C8.09125 11.5093 7.68315 11.3683 7.86078 10.2655L7.89084 10.1754C7.89084 10.1754 8.05618 9.57413 8.40187 8.28155C8.74755 6.98896 8.4452 6.64334 8.14635 6.38778C7.19946 5.57802 5.44094 6.51647 5.44094 6.51647L5.42591 6.52303Z"
        fill="#425466" />
</svg>