<svg width="136" height="136" viewBox="0 0 136 136" fill="none" xmlns="http://www.w3.org/2000/svg">
    <rect width="136" height="136" rx="68" fill="#1165A2" />
    <path
        d="M68.836 77.398l1.303.274-1.77 8.396h-37.92L30 85.664h2.014c2.264 0 3.883-.731 4.857-2.194.552-.835.829-2.769.829-5.798v-43.27c0-3.316-.369-5.393-1.106-6.229-1.026-1.149-2.553-1.723-4.58-1.723H30V25h20.703v1.45c-2.843-.026-4.843.235-6.002.783-1.132.549-1.908 1.24-2.33 2.077-.42.835-.631 2.833-.631 5.994v42.368c0 2.168.21 3.656.632 4.466.316.549.803.953 1.46 1.215.659.26 2.712.391 6.16.391h3.91c4.106 0 6.989-.3 8.647-.9 1.659-.601 3.173-1.66 4.542-3.174 1.368-1.541.687-.686 1.745-2.272zM87.355 41.528h18.546v1.578h-1.116c-.744 0-1.832.327-3.263.981-1.431.654-2.733 1.593-3.906 2.816-1.174 1.223-2.62 3.214-4.336 5.972l-14.038 21.97v25.13c0 3.555.4 5.773 1.202 6.655 1.087 1.194 2.805 1.792 5.151 1.792h1.89V110H67.543v-1.578h2.06c2.462 0 4.207-.74 5.238-2.219.63-.91.944-2.986.944-6.228v-24.32l-14.864-24.23c-1.89-2.844-3.177-4.622-3.864-5.333-.658-.71-2.046-1.564-4.164-2.56-.572-.284-1.402-.426-2.49-.426v-1.578h20.767v1.578h-1.288c-1.345 0-2.59.313-3.735.939-1.116.625-1.674 1.564-1.674 2.815 0 1.024.873 2.873 2.619 5.546L79.242 71.05 90.66 53.217c1.717-2.674 2.576-4.664 2.576-5.973a3.68 3.68 0 00-.644-2.133c-.401-.625-.987-1.109-1.76-1.45-.773-.37-1.932-.555-3.478-.555v-1.578zM33.626 91.094h-3.07v-1.29h7.603v1.29H35.09V100h-1.465v-8.906zM43.425 100.117c-2.763 0-4.145-1.35-4.145-4.05 0-1.162.383-2.092 1.15-2.79.688-.635 1.474-.953 2.358-.953.962 0 1.714.323 2.256.967.503.6.754 1.404.754 2.41v.57h-4.995c0 1.383.564 2.228 1.692 2.535.269.073.681.11 1.238.11.561 0 1.11-.076 1.648-.227v1.238c-.537.127-1.19.19-1.956.19zm.909-4.922c0-.468-.13-.864-.389-1.186-.302-.371-.72-.557-1.252-.557-.562 0-1.018.178-1.37.535a1.671 1.671 0 00-.483 1.208h3.493zM47.747 98.652a3.918 3.918 0 01-.389-.981c-.092-.376-.139-.867-.139-1.472 0-.606.13-1.162.388-1.67a3.735 3.735 0 011.026-1.26c.815-.63 1.828-.945 3.04-.945.63 0 1.105.015 1.428.044l.71.073V100h-1.318l-.059-.872c-.293.391-.74.682-1.34.872a2.33 2.33 0 01-.71.11c-.24 0-.477-.025-.711-.073a3.1 3.1 0 01-.703-.242 2.964 2.964 0 01-.66-.447 3.107 3.107 0 01-.563-.696zm4.6-5.134a7.544 7.544 0 00-.938-.059c-.308 0-.637.057-.99.169a2.254 2.254 0 00-.9.513c-.517.488-.776 1.233-.776 2.233 0 .948.222 1.648.666 2.103.337.337.742.505 1.216.505.61 0 1.113-.222 1.509-.667a1.51 1.51 0 00.212-.3v-4.497zM57.649 94.324l.007 5.676h-1.465v-7.559h1.348l.103.828a4.064 4.064 0 012.548-.945c.913 0 1.602.386 2.066 1.157.85-.771 1.738-1.157 2.666-1.157.918 0 1.587.276 2.007.828.42.561.63 1.49.63 2.783V100h-1.465v-4.014c0-1.27-.305-2.029-.916-2.278a1.905 1.905 0 00-.718-.124c-.654 0-1.254.234-1.801.703V100h-1.465v-4.072c0-.87-.13-1.48-.388-1.831-.25-.342-.696-.513-1.34-.513-.64 0-1.246.246-1.817.74z"
        fill="#fff" />
</svg>