<svg width="160" height="160" viewBox="0 0 160 160" fill="none" xmlns="http://www.w3.org/2000/svg">
<path d="M146.134 37.4667C145.634 36.2492 144.785 35.2071 143.693 34.4715C142.602 33.736 141.317 33.3399 140.001 33.3334H126.668V20C126.661 18.6839 126.265 17.3991 125.529 16.3076C124.794 15.2162 123.752 14.3668 122.534 13.8667C121.32 13.3562 119.982 13.2167 118.689 13.4658C117.396 13.715 116.205 14.3417 115.268 15.2667L95.2676 35.2667C94.6497 35.8896 94.1609 36.6284 93.8291 37.4407C93.4973 38.2529 93.3292 39.1227 93.3342 40V57.2667L78.6009 71.9334C77.976 72.5531 77.4801 73.2905 77.1416 74.1028C76.8032 74.9152 76.6289 75.7866 76.6289 76.6667C76.6289 77.5468 76.8032 78.4181 77.1416 79.2305C77.4801 80.0429 77.976 80.7803 78.6009 81.4C79.2206 82.0249 79.958 82.5208 80.7704 82.8593C81.5828 83.1978 82.4541 83.372 83.3342 83.372C84.2143 83.372 85.0857 83.1978 85.8981 82.8593C86.7105 82.5208 87.4478 82.0249 88.0676 81.4L102.734 66.6667H120.001C120.878 66.6718 121.748 66.5036 122.56 66.1718C123.373 65.8401 124.111 65.3512 124.734 64.7334L144.734 44.7334C145.659 43.7959 146.286 42.6054 146.535 41.3121C146.784 40.0189 146.645 38.6808 146.134 37.4667Z" fill="#EB8B2C"/>
<path d="M80.0006 146.667C62.3196 146.667 45.3626 139.643 32.8602 127.14C20.3578 114.638 13.334 97.681 13.334 79.9999C13.334 62.3188 20.3578 45.3619 32.8602 32.8595C45.3626 20.357 62.3196 13.3333 80.0006 13.3333H82.8006C83.6761 13.412 84.5275 13.6625 85.3062 14.0703C86.0849 14.4782 86.7756 15.0354 87.339 15.7101C87.9023 16.3849 88.3272 17.164 88.5895 18.003C88.8517 18.842 88.9461 19.7244 88.8673 20.5999C88.7885 21.4754 88.5381 22.3268 88.1302 23.1055C87.7224 23.8842 87.1652 24.5749 86.4904 25.1382C85.8157 25.7016 85.0365 26.1265 84.1975 26.3887C83.3586 26.651 82.4761 26.7454 81.6006 26.6666H80.0006C69.4523 26.6666 59.1409 29.7945 50.3702 35.6549C41.5996 41.5152 34.7638 49.8447 30.7271 59.5901C26.6904 69.3355 25.6342 80.0591 27.6921 90.4047C29.75 100.75 34.8295 110.253 42.2883 117.712C49.7471 125.171 59.2502 130.251 69.5958 132.308C79.9415 134.366 90.665 133.31 100.41 129.273C110.156 125.237 118.485 118.401 124.346 109.63C130.206 100.86 133.334 90.5483 133.334 79.9999C133.367 79.4671 133.367 78.9327 133.334 78.3999C133.252 77.5238 133.343 76.64 133.604 75.7995C133.865 74.959 134.29 74.1785 134.854 73.5029C135.418 72.8274 136.11 72.2702 136.89 71.8635C137.671 71.4568 138.524 71.2086 139.401 71.1333C140.277 71.0508 141.161 71.1427 142.001 71.4035C142.842 71.6643 143.622 72.089 144.298 72.653C144.973 73.217 145.53 73.9091 145.937 74.6895C146.344 75.4699 146.592 76.3231 146.667 77.1999C146.667 78.1332 146.667 79.0666 146.667 79.9999C146.667 97.681 139.644 114.638 127.141 127.14C114.639 139.643 97.6817 146.667 80.0006 146.667ZM119.201 87.9999C119.554 86.2318 119.191 84.3956 118.191 82.8953C117.191 81.3951 115.635 80.3535 113.867 79.9999C112.099 79.6463 110.263 80.0095 108.763 81.0097C107.262 82.0099 106.221 83.5651 105.867 85.3333C104.91 90.0689 102.684 94.4555 99.4267 98.0243C96.1698 101.593 92.0045 104.21 87.3759 105.595C82.7473 106.981 77.8292 107.082 73.1472 105.89C68.4652 104.697 64.1952 102.255 60.7933 98.8241C57.3915 95.3932 54.9857 91.1025 53.833 86.4106C52.6803 81.7186 52.824 76.8016 54.2487 72.1849C55.6734 67.5682 58.3256 63.4253 61.922 60.1989C65.5183 56.9725 69.9237 54.7838 74.6673 53.8666C76.4354 53.513 77.9906 52.4714 78.9908 50.9712C79.991 49.4709 80.3543 47.6347 80.0006 45.8666C79.647 44.0985 78.6055 42.5433 77.1052 41.5431C75.6049 40.5429 73.7688 40.1796 72.0007 40.5333C64.9214 41.9802 58.3662 45.3178 53.0316 50.1914C47.697 55.0649 43.7821 61.2925 41.7028 68.2125C39.6236 75.1325 39.4576 82.4865 41.2225 89.4933C42.9874 96.5001 46.6173 102.898 51.7266 108.007C56.8359 113.117 63.2338 116.746 70.2406 118.511C77.2474 120.276 84.6014 120.11 91.5214 118.031C98.4414 115.952 104.669 112.037 109.543 106.702C114.416 101.368 117.754 94.8125 119.201 87.7332V87.9999Z" fill="#33475B"/>
</svg>
