<svg width="80" height="83" fill="none" xmlns="http://www.w3.org/2000/svg"><g clip-path="url(#prefix__prefix__prefix__clip0_1_448)"><g clip-path="url(#prefix__prefix__prefix__clip1_1_448)"><path d="M135.998 65.18l-68.652 61.345c1.884.317 3.768.633 5.652.844l63.824-57.13c-.117-1.686-.471-3.373-.824-5.06zm-4.004-10.646L55.57 123.048c1.53.632 3.062 1.159 4.71 1.687l73.716-65.984a68.138 68.138 0 00-2.002-4.217zm-11.54-14.862c-.471-.421-1.06-.843-1.648-1.475l-81.488 72.94c.589.632 1.177 1.054 1.648 1.476.471.421 1.06.843 1.649 1.475l81.488-72.94-1.649-1.476zM99.022 27.55L25.306 93.534c.59 1.37 1.178 2.845 1.884 4.216l76.425-68.408c-1.413-.738-2.944-1.265-4.593-1.792zm-29.086-2.424L22.598 67.394c-.471 2.424-.707 4.743-.824 7.062l56.052-50.173c-2.59.21-5.3.421-7.89.843zM38.848 39.672c-5.3 4.743-9.42 10.119-12.247 16.233L56.983 28.71c-6.713 2.53-12.836 6.219-18.135 10.962zm70.891-7.589l-79.25 70.938c.823 1.265 1.765 2.424 2.59 3.478l80.546-72.097c-1.178-.738-2.473-1.476-3.886-2.319zm-23.552-7.168l-63.825 57.13c.236 1.686.471 3.373.942 5.059L91.84 25.758c-1.766-.422-3.768-.632-5.652-.843zm39.92 20.765l-80.546 72.097c1.295.843 2.59 1.581 3.886 2.319l79.25-70.938a24.898 24.898 0 00-2.59-3.478z" fill="#B07D54"/><path d="M126.107 52.848l-68.535 61.346c1.884.316 3.768.633 5.652.843l63.825-57.13c-.236-1.686-.589-3.372-.942-5.059zm-3.886-10.645L45.797 110.61c1.53.632 3.061 1.159 4.71 1.686l73.716-65.983c-.707-1.37-1.296-2.741-2.002-4.111zM110.562 27.34c-.471-.421-1.06-.843-1.648-1.475l-81.488 72.94c.589.633 1.177 1.054 1.648 1.476.471.422 1.06.843 1.649 1.476l81.488-72.94-1.649-1.476zm-31.204 87.276l47.22-42.268c.353-2.213.707-4.322.707-6.535l-55.346 49.54c2.59-.105 5.063-.316 7.419-.737zm9.891-99.398L15.533 81.202c.589 1.37 1.177 2.846 1.884 4.216L93.84 17.01c-1.53-.738-3.062-1.265-4.592-1.792zm-29.204-2.424l-47.22 42.268c-.472 2.424-.707 4.743-.825 7.062l56.052-50.173c-2.708.21-5.417.422-8.007.843zM29.074 27.34c-5.299 4.744-9.42 10.12-12.246 16.233l30.38-27.195c-6.829 2.53-12.952 6.22-18.134 10.962zm70.773-7.588L20.596 90.689c.824 1.265 1.766 2.425 2.59 3.479l80.664-71.992c-1.295-.843-2.59-1.687-4.003-2.424zm-23.434-7.169L12.59 69.713c.235 1.686.589 3.373.942 5.06l68.534-61.347c-1.884-.421-3.768-.738-5.652-.843zm39.92 20.765l-80.546 72.097c1.296.844 2.59 1.582 3.886 2.319l79.251-70.938c-.825-1.159-1.649-2.424-2.591-3.478z" fill="#222"/></g></g><defs><clipPath id="prefix__prefix__prefix__clip0_1_448"><path fill="#fff" d="M0 0h80v83H0z"/></clipPath><clipPath id="prefix__prefix__prefix__clip1_1_448"><path fill="#fff" transform="translate(12 11)" d="M0 0h126v117H0z"/></clipPath></defs></svg>