<svg width="172" height="172" fill="none" xmlns="http://www.w3.org/2000/svg"><circle cx="86" cy="86" r="86" fill="#F9F9FF"/><path d="M86.242 129.616H51.085c-.573 0-1.153 0-1.727-.06-2.934-.278-4.114-2.282-2.863-4.992 1.086-2.34 2.27-4.62 3.42-6.934 5.429-10.899 10.857-21.796 16.286-32.69.168-.334.343-.666.538-.984 1.367-2.222 3.587-2.535 5.337-.618 1.234 1.34 2.278 2.847 3.378 4.301a60532.95 60532.95 0 0116.78 22.246c2.442 3.228 5.519 3.403 8.389.5 1.424-1.441 2.815-2.92 4.256-4.349 2.599-2.577 5.547-2.422 7.669.583 4.259 6.031 8.412 12.142 12.585 18.232a5.56 5.56 0 01.74 1.562c.405 1.399-.168 2.525-1.567 2.898-.877.213-1.778.311-2.68.292-11.788.02-23.583.024-35.384.013zM112.524 69.898a11.859 11.859 0 01-1.966 6.53 11.614 11.614 0 01-5.215 4.319 11.432 11.432 0 01-6.703.647 11.535 11.535 0 01-5.925-3.243 11.8 11.8 0 01-3.145-6.036 11.898 11.898 0 01.697-6.792 11.709 11.709 0 014.304-5.25 11.466 11.466 0 016.456-1.936 11.564 11.564 0 018.122 3.494 11.892 11.892 0 013.375 8.267z" fill="#D4D2E3"/></svg>