<svg width="179" height="8" fill="none" xmlns="http://www.w3.org/2000/svg"><path d="M140.486.042a788.498 788.498 0 00-3.122-.01c-3.779.002-7.559.015-11.332.09-2.157.039-4.315.076-6.474.098-2.321.023-2.481.015-4.846.029-.832.004-1.664.011-2.496.017-4.628.041-9.255.125-13.886.107C93.527.352 88.724.325 83.923.27 78.97.216 74.016.16 69.063.093A1681.96 1681.96 0 0051.897 0c-5.286.015-10.573.034-15.853.125-4.342.06-8.682.129-13.02.207-1.192.022-2.384.045-3.578.026-2.288-.008-3.05.647-2.245 1.071-1.296-.01-2.592-.022-3.887-.035-2.06-.02-4.12-.034-6.18-.049-2.173-.008-2.96.583-2.344 1.005-2.268.187-2.264 1.072-.419 1.323-.113.094-.156.195-.136.295L3.66 3.96l-1.075-.01C-.716 3.924-.899 5.295 2.28 5.368c-.306.345-.691.69-.608 1.041.03.122.777.08 1.179.103.469.027 2.013.026 2.366.025 1.104-.004 2.26-.022 3.38-.04l1.835.005c-1.714.347-1.246 1.284 1.48 1.294 2.28-.004 4.562.001 6.842.014l1.99.014c3.514.021 1.638.001 5.406.038 2.95.03 5.897.07 8.845.108 4.032.034 8.07.045 12.103.001 1.867-.02 4.363-.066 6.228-.099 5.496-.096 10.994-.185 16.487-.297a422.28 422.28 0 014.495-.07c3.574.062 7.15.12 10.725.182 1.571.018 3.689.044 5.245.056 3.9.03 7.802.01 11.703.001 5.497-.02 10.997-.054 16.495-.04a4064.597 4064.597 0 019.027.087c.256.023.533.055.632.008 1.29.02 1.936.063 1.813-.357 3.426.002 6.852.006 10.277.029 1.057.016 2.116.032 3.173.05 2.871.056 5.737.136 8.605.205 1.887.044 3.777.076 5.668.098.407.008.561.008 2.782.04l1.676.026c.348.005.943.114 1.046.014.982.076.944.045.522-.485l.05-.044c1.026.014 2.051.029 3.077.04l1.712.016c2.11.01 3.119-.005 2.68-1.215.692.008 1.052.014 1.156-.063l.705-.03c.383-.018.76-.047 1.14-.07.519-.111 1.398-.15 1.557-.334.358-.418.231-.678-.217-.86 1.299-.112 1.846-.487 1.633-.819 2.6-.182 2.415-1.382-.668-1.394-.823-.002-1.645-.005-2.468-.01-.887-.003-1.775-.008-2.663-.01l-.002-.047c.53-.016.964-.07 1.303-.149a7.576 7.576 0 002.31-.074c-.256-.457-.354-.924-.769-1.37-.045-.05-.342-.006-.513-.007-.816-.007-1.634 0-2.449-.008l-4.849-.014c.161-.38-.644-.796-2.456-.803l-.849-.001c-1.17-.002-2.341-.006-3.512-.007-3.252-.007-6.504-.018-9.756-.04-3.121-.02-6.242-.05-9.363-.064h-.001zm-84.314 1.33c3.432.011 6.863.036 10.294.068-.399.01-.815.02-1.183.027a283.6 283.6 0 01-7.25.029c-3.034-.012-6.07-.02-9.105-.033l-7.275-.031c3.424-.036 6.85-.057 10.276-.066 1.414 0 2.829.002 4.243.006zM163.488 2.55l3.82.016c.388.003.777.004 1.165.006-2.138.047-4.276.095-6.416.137-1.662-.005-3.325-.011-4.988-.013a4487.34 4487.34 0 00-6.355-.005 254.42 254.42 0 004.26-.088c1.412-.043 2.829-.059 4.248-.063 1.422-.001 2.844.004 4.266.01zm8.802 3.316c.044.006.089.011.131.018.006 0 .015.008.006.007-.047-.006-.123-.007-.135-.022l-.003-.003h.001zm-123.264.35c.148.12.348.238.557.354-.851.014-1.7.027-2.587.036-3.93.043-7.866.034-11.797 0-2.69-.035-5.378-.07-8.068-.1 3.036-.014 6.072-.034 9.108-.07 3.682-.057 7.36-.134 11.042-.192l1.745-.027zM3.08 6.485l-.002.002a31.396 31.396 0 01.002-.002z" fill="#EB8B2C"/></svg>