<svg width="136" height="136" viewBox=" 0 0 136 136" fill="none" xmlns="http://www.w3.org/2000/svg">
    <rect width="136" height="136" rx="68" fill="#031E4C" />
    <path
        d="M67.815 28.012c.375-.038.599.021.962.102 1.664.37 2.393 1.508 3.46 2.71l2.525 2.856.8.981.76.796 1.742 1.985 2.455 2.845 4.761 5.428 6.766 7.678 5.128 5.863 3.663 4.223 5.091 5.775c.63.718 1.436 1.497 1.786 2.4l.136.518c.138.478.149.36.15.889V104.077c-.001.656-.041.473-.184 1.036-.501 1.962-2.088 2.884-4.034 2.887H51.83c-1.78-.003-3.524-.908-4.024-2.739-.055-.203-.12-1.09-.12-1.332V79.205c.03-2.48 1.947-3.846 4.292-3.85h29.676c2.21 0 4.79-.342 6.148 1.852.159.256.364.67.43.961.126.564.23.971.23 1.555v9.105c-.005.456-.059.54-.156.962-.103.448-.094.567-.307 1.016-.703 1.483-2.17 2.193-3.755 2.167-.435-.007-.941-.172-1.332-.359-1.148-.547-1.76-1.218-2.108-2.454-.157-.56-.185-.404-.186-1.036v-4.442c0-.316.088-1.22-.18-1.405-.134-.091-.4-.075-.56-.075H56.122c-.721.001-.739.11-.74.814V99.043c0 .263-.05.814.119 1.013.168.2.46.171.695.171H99.49c.202-.003.405-.002.548-.171.14-.166.118-.438.118-.643v-24.28c0-.18.01-.416-.051-.585-.091-.25-1.108-1.37-1.351-1.636l-3.667-4.169-2.234-2.586-6.778-7.73-.603-.64-4.117-4.752-.79-.85-3.372-3.849-5.15-5.922-.706-.763-2.36-2.728c-.166-.182-.73-.877-.94-.904-.23-.03-.61.434-.764.602l-1.923 2.172-7.976 8.95-11.18 12.584-.877.926-2.878 3.287-1.568 1.742-1.276 1.428-2.472 2.78c-.267.31-1.113 1.155-1.226 1.466-.061.169-.051.404-.051.585v29.462c-.003 2.003-1.391 3.691-3.405 3.934-.225.027-.359.066-.592.05-1.627-.117-3.038-.969-3.571-2.578l-.13-.592c-.121-.559-.146-.418-.147-1.036V72.764c.005-.525.04-.546.155-1.036l.125-.592c.36-1.063 1.585-2.244 2.346-3.088l5.647-6.344 1.212-1.376.75-.794.6-.748.771-.826 3.65-4.072 1.747-2.018 1.576-1.757.755-.783.594-.734.96-1.043 1.055-1.225 1-1.064 4.674-5.295.821-.857.504-.618 1.574-1.76 5.03-5.626c.668-.749 1.654-2.068 2.493-2.552.548-.316 1.16-.444 1.776-.544z"
        fill="#FDFDFD" />
</svg>