<svg width="142" height="35" viewBox="0 0 142 35" fill="none" xmlns="http://www.w3.org/2000/svg">
  <path
    d="M15.9406 0.762422C14.1141 0.969311 11.3742 1.8287 9.81531 2.68808C5.62678 4.96386 2.79244 8.5128 1.37527 13.2394C1.09184 14.1625 0.761162 16.6769 0.776909 17.8546C0.776909 18.8891 1.09184 21.4195 1.28079 22.0242C1.37527 22.3107 1.57997 22.995 1.75318 23.5202C2.03662 24.4114 3.40655 27.2124 3.64274 27.4033C3.68998 27.4511 3.94192 27.7694 4.17812 28.1354C4.76073 29.0107 6.28813 30.5703 7.43761 31.4615C8.31941 32.1459 10.8073 33.5941 11.1223 33.61C11.201 33.61 11.2167 33.0053 11.1695 32.2095C11.0593 30.443 11.3899 28.0399 12.0985 25.5891C12.2245 25.1753 12.319 24.6342 12.319 24.3955C12.319 24.1568 12.382 23.9021 12.4607 23.8226C12.5394 23.7271 12.6811 23.2656 12.7599 22.7881C12.8544 22.3107 13.0118 21.5786 13.122 21.1648C13.2795 20.5442 13.2638 20.3055 13.0433 19.6371C12.7284 18.6185 12.7126 16.9634 13.0276 16.1677C13.7676 14.2739 14.5864 13.5577 15.9721 13.5577C17.6412 13.5577 18.4443 14.8309 18.1294 16.9634C17.9877 17.9342 17.594 19.462 17.3421 19.9394C17.2791 20.0827 17.1688 20.4805 17.1216 20.8147C17.0586 21.1648 16.9327 21.6582 16.8539 21.9287C16.6335 22.5494 17.0586 23.7589 17.6255 24.2204C18.1609 24.6501 19.2789 24.7774 20.3024 24.5387C21.0267 24.3796 21.3259 24.1886 22.0817 23.4565C22.9792 22.5653 23.6563 21.5309 23.6563 21.0375C23.6563 20.8943 23.7351 20.7033 23.8296 20.6078C24.2704 20.1622 24.5066 16.6929 24.176 15.2287C23.8138 13.6214 22.6958 12.0458 21.2471 11.1228C19.7985 10.1838 16.8067 9.91328 14.9644 10.5499C13.6732 10.9955 12.5237 11.7434 11.7836 12.6187C11.1223 13.3986 10.4294 14.6717 10.4294 15.1173C10.4294 15.2765 10.3507 15.4834 10.2562 15.5788C10.1617 15.6743 10.0515 16.2791 10.0043 16.9316C9.92553 17.9024 9.98852 18.348 10.272 19.3028C10.4609 19.9553 10.8073 20.7192 11.012 21.0057C11.4372 21.5786 11.4372 21.8014 11.0435 23.3292C10.9333 23.743 10.7443 24.1249 10.6341 24.1727C9.6421 24.5546 7.62657 22.1515 6.94947 19.7644C6.69753 18.8572 6.68179 15.6266 6.93373 14.6717C7.04395 14.2739 7.23291 13.7328 7.35888 13.4463C7.48485 13.1758 7.59507 12.9052 7.59507 12.8415C7.59507 12.7779 7.91 12.2368 8.30366 11.648C10.3507 8.52871 13.6732 6.8736 17.8774 6.8736C18.838 6.8736 19.83 6.93726 20.0977 7.01683C22.2707 7.70116 22.8533 7.92396 23.7036 8.43322C25.3569 9.43584 26.5537 10.8045 27.7504 13.0962C27.8291 13.2394 27.9393 13.6214 27.9866 13.9397C28.0496 14.2579 28.1598 14.5603 28.2385 14.6081C28.3173 14.6558 28.3802 15.6902 28.3802 16.9157C28.3802 19.1278 28.2228 20.019 27.5614 21.8333C26.8214 23.8226 24.916 26.0188 23.1839 26.8782C22.1919 27.3556 20.3339 27.8808 19.5938 27.8808C18.6018 27.8808 16.6492 27.0532 16.1138 26.3848C15.8619 26.0824 15.6257 26.1938 15.6257 26.6235C15.6257 26.7827 15.5627 27.0532 15.4682 27.2124C15.3895 27.3556 15.2478 27.8012 15.1691 28.1991C14.7124 30.2998 14.0668 32.0026 13.0748 33.5941C12.7756 34.0874 13.0276 34.3739 13.8464 34.4853C14.2558 34.549 14.8069 34.6604 15.0588 34.7399C15.6887 34.9468 19.1056 34.915 20.2551 34.7081C21.2944 34.5171 22.9792 34.0397 23.7351 33.7214C28.4905 31.748 32.0964 27.7375 33.6553 22.629C34.4898 19.9076 34.5371 16.7406 33.7812 13.5577C33.5293 12.5233 33.4506 12.2845 32.7735 10.6931C31.7972 8.36957 29.5927 5.64818 27.3567 3.97716C25.4357 2.54485 23.5461 1.71729 20.6016 1.00114C19.7827 0.810166 16.8697 0.651021 15.9406 0.762422ZM57.9361 6.50757C57.322 6.60305 56.3457 7.62158 56.0938 8.41731C55.8261 9.29261 56.0938 10.2316 56.8496 10.9636C58.5187 12.6028 61.4161 11.0591 61.0539 8.70377C60.8334 7.20781 59.4793 6.25293 57.9361 6.50757ZM40.7726 7.44652C40.6309 7.60567 40.6309 26.7986 40.7884 27.0214C40.8671 27.1487 41.5442 27.1965 42.8669 27.1805L44.8352 27.1646L44.9139 23.934C44.9769 21.3081 45.0399 20.6715 45.2288 20.5601C45.3548 20.4805 46.4255 20.4009 47.6065 20.4009C50.1889 20.4009 51.2754 20.21 52.4564 19.5734C53.9995 18.7299 54.8971 17.5204 55.3852 15.5948C55.6844 14.3853 55.6844 13.51 55.3695 12.2686C55.086 11.1546 54.9601 10.8841 54.283 9.97693C53.4484 8.847 52.5981 8.22634 51.2124 7.73299C50.4409 7.47835 49.7953 7.43061 45.6225 7.38287C43.0243 7.35104 40.8356 7.38287 40.7726 7.44652ZM49.4174 11.4092C50.4724 11.7434 50.992 12.2209 51.2282 13.0803C51.5274 14.2102 51.3069 15.2606 50.6456 15.8971C49.9212 16.5815 49.2756 16.7406 47.1656 16.7406C45.7799 16.7406 45.3548 16.6929 45.1658 16.486C44.9611 16.295 44.9139 15.8335 44.9139 14.0192C44.9139 11.1546 44.8981 11.1705 47.0869 11.1705C48.0317 11.1705 48.945 11.266 49.4174 11.4092ZM77.0364 10.4703C77.0364 11.5684 76.9577 12.6028 76.879 12.7779C76.7687 12.9848 76.5483 13.0803 76.1704 13.0803C75.887 13.0803 75.6193 13.1439 75.5878 13.2394C75.572 13.319 75.572 13.876 75.6193 14.4648C75.698 15.5152 75.7137 15.5311 76.1861 15.6425C76.4538 15.6902 76.753 15.7857 76.8475 15.8494C76.9892 15.929 77.0364 17.1862 77.0364 20.3691C77.0364 24.6501 77.0522 24.8093 77.3986 25.4459C78.1229 26.7986 79.2567 27.276 81.5556 27.2124L83.0988 27.1646L83.146 25.6209L83.1933 24.0613H82.7996C82.2012 24.0613 81.3194 23.5839 81.225 23.2019C81.1777 23.0109 81.1305 21.324 81.1305 19.4302C81.1305 16.8202 81.1777 15.9449 81.3352 15.8176C81.4454 15.7221 81.8863 15.6266 82.3115 15.5948L83.0988 15.547V13.1598L82.2327 13.1121C81.7603 13.0803 81.3194 12.9689 81.2565 12.8734C81.1935 12.762 81.1305 11.7275 81.1305 10.5658V8.46505H77.0364V10.4703ZM135.566 8.56054C135.503 8.6242 135.455 9.62681 135.455 10.7886C135.455 13.0484 135.44 13.0803 134.574 13.0803C134.18 13.0803 134.18 13.0962 134.227 14.3057C134.274 15.5152 134.29 15.547 134.7 15.5948C134.92 15.6266 135.188 15.738 135.266 15.8335C135.361 15.9449 135.455 17.8705 135.503 20.3214C135.55 22.6767 135.629 24.8252 135.692 25.0798C135.881 25.7801 136.857 26.6713 137.786 26.9737C138.825 27.3238 141.47 27.3556 141.738 27.0214C141.864 26.8782 141.911 26.3052 141.88 25.4777L141.833 24.1409L141.282 24.0454C140.683 23.9499 140.006 23.6316 139.833 23.3611C139.77 23.2656 139.707 21.5309 139.707 19.5097C139.707 15.356 139.612 15.6266 140.982 15.6266C141.88 15.6266 141.959 15.4674 141.88 14.0192L141.833 13.1598L140.809 13.0803L139.786 13.0007L139.707 10.7727L139.628 8.54463L137.644 8.49688C136.558 8.48097 135.629 8.5128 135.566 8.56054ZM69.242 12.6983C68.4704 12.9052 67.5729 13.4304 66.9745 14.0511C66.2502 14.8149 66.0612 14.7672 65.9825 13.7964L65.9353 13.1598H61.9987V27.1646L63.9827 27.1965C65.9353 27.2442 65.9825 27.2283 66.077 26.8782C66.1242 26.6872 66.1715 24.666 66.1715 22.3744C66.1715 17.8387 66.1872 17.7114 67.1162 16.8202C67.5256 16.4223 67.7461 16.3427 68.6279 16.295L69.6514 16.2313L70.2655 16.8838C70.9898 17.6477 70.9111 16.9157 70.9741 23.5043C70.9898 25.2549 71.0056 26.7986 71.0213 26.9577C71.0528 27.1805 71.3048 27.2124 73.0684 27.1805L75.0681 27.1646V15.9926L74.6115 15.0855C73.8242 13.51 72.6117 12.762 70.7536 12.6665C70.0923 12.6506 69.4152 12.6506 69.242 12.6983ZM88.9249 12.6983C87.2243 13.1598 86.4055 13.6214 85.3505 14.6717C83.9333 16.1199 83.2877 17.8069 83.2877 20.0827C83.3035 24.0772 85.7757 27.0373 89.4288 27.3874C92.5466 27.6898 94.9558 26.7668 96.4989 24.682C96.7194 24.3796 97.1918 23.4088 97.1918 23.2337C97.1918 23.1701 96.2785 23.1064 95.1762 23.1064H93.1607L92.6883 23.5998C92.1372 24.1727 91.3656 24.5387 90.657 24.5387C89.9484 24.5387 88.8619 24.0295 88.3581 23.4884C87.9801 23.0587 87.429 21.8173 87.429 21.3877C87.429 21.2444 88.5785 21.1967 92.2789 21.1967C94.94 21.1967 97.1918 21.133 97.302 21.0694C97.5382 20.9102 97.3177 18.3798 96.9713 17.4568C96.2627 15.5311 94.9243 13.9078 93.5701 13.3349C93.1764 13.1758 92.7198 12.9689 92.5623 12.8893C92.2317 12.7142 89.4288 12.571 88.9249 12.6983ZM91.9955 16.1836C92.6096 16.6133 93.1449 17.6318 93.0662 18.2047C93.019 18.5708 92.9875 18.5708 90.3264 18.6185C87.2558 18.6663 87.2401 18.6504 87.7282 17.5045C88.0746 16.7088 88.7675 15.9926 89.4131 15.7857C90.1531 15.547 91.3499 15.738 91.9955 16.1836ZM112.23 12.6983C110.403 13.1917 109.127 14.0033 108.135 15.2606C107.742 15.7698 107.427 16.2473 107.427 16.3427C107.427 16.4223 107.317 16.7088 107.175 16.9793C107.033 17.234 106.829 18.0297 106.718 18.7458C106.167 22.1515 107.679 25.3345 110.513 26.7668L111.6 27.3238H113.883C116.245 27.3238 116.45 27.276 117.898 26.4962C118.953 25.9233 120.685 23.6953 120.418 23.2496C120.355 23.1701 119.457 23.1064 118.402 23.1064H116.465L116.072 23.5679C114.497 25.3663 111.552 24.4432 110.923 21.9447C110.828 21.6105 110.828 21.324 110.907 21.2603C110.986 21.2126 113.237 21.1808 115.93 21.1967C119.772 21.1967 120.811 21.1648 120.827 21.0057C120.969 19.0164 120.024 16.0722 118.843 14.799C118.182 14.0829 117.032 13.2872 116.465 13.1439C116.213 13.0803 115.93 12.9689 115.82 12.8893C115.599 12.7142 112.718 12.571 112.23 12.6983ZM114.686 15.8017C115.395 16.0563 116.213 16.9475 116.339 17.6318C116.528 18.6663 116.544 18.6663 113.615 18.6185C110.986 18.5708 110.97 18.5708 110.923 18.2047C110.86 17.7591 111.411 16.661 111.883 16.2473C112.56 15.6743 113.741 15.4834 114.686 15.8017ZM125.929 12.6983C122.701 13.4781 121.536 14.6399 121.52 17.0589C121.52 19.6689 122.811 20.767 126.637 21.4513C129.267 21.9128 130.023 22.3266 129.991 23.3292C129.976 24.0454 129.488 24.5069 128.511 24.7138C127.283 24.9843 126.322 24.682 125.551 23.8067L124.937 23.1064H123.031C121.488 23.1064 121.126 23.1542 121.126 23.3292C121.126 23.7907 121.756 25.0002 122.276 25.605C122.764 26.1302 123.142 26.3848 124.622 27.101C124.764 27.1805 125.535 27.3079 126.307 27.4033C127.74 27.5784 130.228 27.4193 130.857 27.101C130.999 27.0373 131.409 26.8304 131.755 26.6713C132.653 26.2416 133.503 25.2708 133.818 24.3478C134.164 23.2974 134.07 21.8333 133.582 20.8147C132.999 19.6211 131.456 18.7618 129.157 18.348C126.197 17.8228 126.149 17.8069 125.677 17.3454C125.11 16.7565 125.11 16.5496 125.677 15.9131C126.134 15.4038 126.165 15.3879 127.425 15.3879C128.684 15.3879 128.716 15.4038 129.173 15.9131C129.425 16.1995 129.629 16.5337 129.629 16.661C129.629 16.852 129.96 16.8998 131.598 16.8998C133.77 16.8998 133.708 16.9475 133.33 15.8176C132.637 13.8123 130.857 12.7938 127.897 12.6824C126.984 12.6506 126.102 12.6506 125.929 12.6983ZM104.986 13.0325C104.293 13.2712 103.333 14.067 103.034 14.6399C102.734 15.2128 102.467 14.9741 102.388 14.0192L102.309 13.1598H98.3727L98.3255 19.8439C98.3097 23.5202 98.3255 26.6872 98.3727 26.8941C98.4515 27.2442 98.4987 27.2442 100.388 27.2124C101.475 27.1965 102.357 27.101 102.42 27.0055C102.483 26.9259 102.546 25.239 102.546 23.2656C102.546 20.1463 102.577 19.5893 102.845 18.8891C103.396 17.4408 104.577 16.5815 106.057 16.5815C106.466 16.5815 106.64 16.5019 106.687 16.295C106.797 15.8335 106.813 13.685 106.718 13.2076C106.624 12.8256 106.545 12.762 106.12 12.7779C105.836 12.7938 105.333 12.9052 104.986 13.0325ZM56.4875 13.2712C56.4402 13.3826 56.4245 16.5178 56.4402 20.2418L56.4875 27.0055L58.3613 27.0851C59.495 27.1328 60.3138 27.101 60.4398 27.0055C60.613 26.8782 60.6602 25.5254 60.6602 20.1145C60.676 16.4223 60.6287 13.319 60.5815 13.2394C60.424 13.0007 56.5662 13.0325 56.4875 13.2712Z"
    fill="#33475B" />
</svg>