<svg width="403" height="370" fill="none" xmlns="http://www.w3.org/2000/svg"><g clip-path="url(#prefix__prefix__clip0_9_250)"><path d="M307.978 153.55c-13.942 4.526-24.807 6.709-27.724-6.674-2.344-10.754-1.823-22.086-3.205-33.007-2.958-23.382-6.436-41.676-30.088-54.252C203.689 36.61 136.597 48.363 93.082 71.829 66.27 86.29 44.732 110.08 33.9 134.659c-7.68 17.43-3.554 27.737 14.138 36.566 20.062 10.014 41.037 18.62 46.744 39.474 6.471 23.646-5.545 47.31-10.266 71.051-3.695 18.583-2.205 41.111 17.362 52.016 24.053 13.406 51.534 5.86 74.919-7.514 25.064-14.334 43.491-35.757 70.151-48.159 21.462-9.984 44.878-10.957 66.982-18.742 24.065-8.475 42.181-23.655 48.319-44.883 4.181-14.464 3.503-31.686-5.369-44.04-4.873-6.786-13.543-9.525-22.794-10.126-11.846-.77-20.95-5.263-33.497-3.979m16.934 80.585c.564-.581 1.126-1.168 1.687-1.759m0 0c3.817-4.024 7.57-8.255 11.452-12.367m-11.452 12.367c.225.075.211.465-.157 1.3a45.492 45.492 0 01-1.266 2.636m1.423-3.936c-.66-.223-3.377 2.255-5.259 4.088m16.711-16.455c.417-.442.836-.882 1.256-1.32m-1.256 1.32c.078-.48.169-.973.271-1.477.795-3.932 2.18-8.102 3.993-12.245m-4.264 13.722c-.021.131-.042.261-.061.39m-12.814 15.913c-1.457 2.807-3.182 5.505-4.953 8.189m4.953-8.189a248.366 248.366 0 01-5.37 6.09c-.134.147-2.553 2.845-4.158 3.871m9.528-9.961c4.447-5.208 8.68-10.555 12.814-15.913m-16.65 16.065a62.502 62.502 0 00-1.843 1.86c-1.666 1.849-3.378 3.702-5.073 5.571m6.916-7.431c.24-.382.411-.649.489-.759 4.804-6.797 10.612-13.453 14.798-20.499 1-1.684.706-1.585-.346-.446m-14.941 21.704c-1.257 2.012-4.388 7.23-5.692 9.809m23.659-27.584c2.708-2.827 5.487-5.58 8.402-8.151.731-.646-.807 1.621-1.262 2.415-2.063 3.594-4.356 7.113-6.622 10.637m-.518-4.901l-1.317 1.71m1.317-1.71l.144-.189.261-.339c5.664-7.381 11.381-14.831 16.556-22.465m-13.953 10.591a711.21 711.21 0 01-6.034 8.473m6.034-8.473a80.36 80.36 0 012.248-4.704m-2.248 4.704c2.897-4.127 5.741-8.26 8.546-12.382m-12.871 26.494c-.313 2.089-.362 3.887.034 5.058m1.801-1.867c-.519.808-1.037 1.615-1.55 2.424m1.55-2.424c-.598.624-1.199 1.246-1.801 1.867m1.801-1.867c1.15-1.198 2.292-2.4 3.425-3.609.866-.924 2.57-3.401 3.184-4.036m9.834-20.249l-.044.236m.044-.236c.656-3.578 1.166-7.649.528-9.201m-.528 9.201a204.663 204.663 0 003.503-5.339c.06-.095.359-.594.785-1.329m-22.281 36.986c-.191.3-.38.6-.569.901-.321.509-4.399 7.551-3.243 7.245 1.865-.495 3.589-1.886 5.127-3.525m-1.315-4.621a2.941 2.941 0 01-.251-.557m.251.557c.494.833 1.363 1.127 2.732.648m-2.983-1.205a801.301 801.301 0 01-3.761 3.854c-4.06 4.135-8.729 10.807-14.04 15.19m26.211-28.556c.219-.226.3-.219.157.173-.411 1.124-.942 2.224-1.533 3.317m1.376-3.49c2.899-7.142 6.953-15.955 9.79-20.013m-9.79 20.013a181.59 181.59 0 00-1.376 3.49m-5.468 11.2a28.5 28.5 0 00.68-.753m-.68.753c.099-.491.255-1.055.472-1.688a21.36 21.36 0 01.945-2.285m-1.417 3.973a7.462 7.462 0 00-.103.651m1.52-4.624c1.178-2.467 2.754-4.826 4.051-7.227m-4.051 7.227c.45-.158.954-.4 1.516-.733m-2.253 3.953c.934-1.072 1.79-2.203 2.558-3.232m-2.558 3.232c.773-1.361 1.403-2.405 1.617-2.797.21-.386.422-.771.636-1.156m-2.253 3.953c-.249.439-.514.911-.783 1.404m0 0c-.089.79.014 1.305.271 1.502m-.271-1.502c-.715 1.305-1.47 2.761-2.095 4.161m5.436-8.797c.526-.706 1.01-1.363 1.448-1.919m-1.448 1.919a5.101 5.101 0 01.136-.994m-.136.994c-.068 1.199.168 1.862.612 2.127m-.917-2.848c.143-.085.29-.176.441-.273m-.441.273c.233-.42.468-.839.705-1.258m1.048.06l.097-.122a143.265 143.265 0 003.468-4.506m-3.565 4.628c-.466.355-.903.662-1.312.925m1.312-.925c.432-.328.89-.697 1.374-1.109.311-.265.613-.535.907-.809m-3.593 2.843c.063-.275.152-.606.264-.985m.212 4.106c.486.29 1.221.104 2.084-.375m-2.084.375c-.162.29-.325.578-.489.866m.489-.866a119.058 119.058 0 003.117-5.964m1.284-2.71a82.114 82.114 0 003.271-4.767c.488-.772-.403 1.762-1.134 3.669m-2.137 1.098c-.417.907-.845 1.811-1.284 2.71m1.284-2.71a149.174 149.174 0 003.357-7.902m-4.641 10.612a30.022 30.022 0 003.421-3.808m0 0c-.329.858-.625 1.589-.748 1.836-.465.929-2.926 5.072-3.706 7.561m4.454-9.397c1.602-2.106 2.937-4.348 4.201-6.615.874-1.566 2.79-4.828 4.247-8.239m-7.228 8.05a194.922 194.922 0 003.689-10.291c.149-.452.786-3.022 1.337-5.978m-5.026 16.269a93.53 93.53 0 013.401-4.372c.227-.274 1.816-1.852 3.827-3.678m-7.228 8.05c-2.952 4.026-5.573 8.231-7.97 12.47m2.296 3.731c-.232.741-.315 1.336-.151 1.655m.151-1.655c.987-.548 2.142-1.48 3.283-2.525m9.619-21.726a31.415 31.415 0 001.251-3.41m-1.251 3.41l.411-.371m-13.464 26.277a.465.465 0 00.108.142c.294.254 1.051-.379 1.903-1.296m-2.011 1.154a299.11 299.11 0 012.695-3.332c.146-.176.407-.476.739-.848m-3.434 4.18c-2.756 3.445-5.501 6.916-8.607 10.143-2.208 2.293 3.171-4.828 3.823-5.765.34-.488 3.78-5.902 2.362-4.792m5.856-3.766c.223-.25.477-.532.749-.832m-.749.832c.201-.184.401-.372.6-.561m-2.023 3.587c1.438-1.55 3.146-3.913 3.343-4.189.192-.267.544-.938.969-1.71m-4.312 5.899c-3.865 6.662-8.774 14-10.896 12.563-1.064-.721-.33-3.259.904-6.019m9.992-6.544a172.253 172.253 0 002.023-3.587m-6.456 4.327a4.34 4.34 0 00-.196.166 50.155 50.155 0 00-2.997 2.979m3.193-3.145l-.029.05c-1.477 2.581-2.64 3.499-3.164 3.095m11.938-9.784c.123-.224.253-.456.386-.69m-.386.69a61.042 61.042 0 01-2.289 2.312m2.289-2.312a83.6 83.6 0 001.455-1.588m-15.759 14.031a90.817 90.817 0 012.366-2.659m-2.366 2.659c-2.076 2.416-4.065 4.888-6.267 7.211-7.841 8.273 4.887-6.604 3.445-6.99-1.411-.378-8.934 9.306-9.542 9.995-1.497 1.694-7.572 9.594-3.312 3.583 2.017-2.847 4.745-6.034 5.966-9.149 1.134-2.893-5.178 4.466-7.417 6.931-.478.526-6.463 7.521-4.647 4.56 1.471-2.396 3.055-4.737 4.605-7.087m29.184-19.185l.149-.271m2.526-2.731c.727-1.268 1.576-2.569 2.213-2.717.198-.046.36-.066.489-.061m-2.702 2.778c.76-.8 1.294-1.335 1.212-1.176l-.143.278m-1.069.898c-.748.789-1.715 1.837-2.526 2.731m3.595-3.629c.42-.472.745-.847.939-1.073l.694-.807m-1.633 1.88c-2.084 3.982-5.047 7.658-7.71 11.406-.875 1.232-4.937 6.671-4.574 6.19a146.029 146.029 0 017.729-9.41m6.188-10.066c1.872.062-3.132 5.133-4.524 7.361-.218.35-.945 1.517-1.664 2.705m6.188-10.066c5.135-5.976 10.763-12.656 13.028-19.68 1.572-4.877-4.535-.066-8.975 3.924m-9.281 21.265c1.723-3.146 2.948-5.587 3.126-5.967 1.844-3.932 4.4-9.527 6.155-15.298m-10.241 25.822c-.193.32-.386.641-.568.949m.568-.949c.286-.318.573-.634.861-.949m9.38-24.873c.307-1.01.59-2.026.84-3.039m-11.649 29.81c-.852 1.44-1.471 2.572-.818 1.8 1.759-2.081 3.369-4.262 4.901-6.467m-4.083 4.667c.471-.635.948-1.268 1.429-1.898m-1.429 1.898c-1.269 1.713-2.488 3.444-3.594 5.213-1.104 1.764-2.472 4.346-.016 1.154 1.358-1.764 10.9-14.028 7.693-11.034m-2.654 2.769c1.691-2.221 3.426-4.423 5.061-6.648 1.677-2.282-.02.356-.538 1.132-.613.916-1.234 1.833-1.869 2.747m-2.654 2.769c.251-.275.503-.549.757-.821.869-.934 1.487-1.566 1.897-1.948m-31.888 18.617c-1.628 1.344-3.317 2.473-5.068 3.248-.236.104-.004-.495.493-1.476m0 0c-.732.468-1.295.589-1.394-.039-.112-.699-.038-1.489.17-2.339m0 0c-1.94 2.142-3.856 4.306-5.651 6.515m5.651-6.515c.099-.398.227-.809.38-1.229m21.477-27.906c-5.935 8.202-12.109 16.324-18.614 24.215m18.614-24.215c-2.727 2.952-10.547 12.901-14.086 16.911m-13.422 18.739a82.841 82.841 0 00-2.401 3.092c-.119.162 1.008-1.294 2.401-3.092zm0 0c1.686-2.177 3.76-4.856 4.478-5.769l1.553-1.975m0 0a344.03 344.03 0 002.863-3.691m-2.863 3.691c.057-.157.117-.315.181-.474m2.682-3.217a163.929 163.929 0 002.787-3.754c.989-1.377 4.61-4.904 2.909-4.158-.394.172-.783.376-1.168.608m-4.528 7.304a390.346 390.346 0 01-2.682 3.217m0 0A334.417 334.417 0 01297 256.954c-4.03 4.341-2.186 1.514 2.079-4.194m8.517-7.796c.798-1.996 2.099-4.171 3.394-6.178m3.816-4.343c-.616.371-1.221.813-1.816 1.31m1.816-1.31l-.055.062a793.834 793.834 0 00-3.761 4.281m2-3.033c-3.536 2.96-6.693 7.897-9.394 11.589m9.394-11.589c.565-.855 1.06-1.623 1.425-2.261.434-.761.87-1.521 1.308-2.281m-2.733 4.542c-.612.927-1.305 1.956-2 3.033m0 0c-2.48 2.844-4.939 5.699-7.394 8.556m0 0c-.732 1-1.429 1.908-2.093 2.661l-2.424 2.757m4.517-5.418l-3.594 4.187m15.721-20.318c-5.266 6.702-11.443 14.636-15.721 20.318m15.721-20.318c2.923-3.719 5.565-7.059 7.446-9.424a2006.961 2006.961 0 0114.005-17.432m-21.451 26.856a674.567 674.567 0 0113.996-23.141c.972-1.539 15.961-27.884 21.294-21.497m-51.934 66.187c-3.458 3.933-8.111 9.229-5.947 6.737 2.301-2.65 4.587-5.308 6.87-7.968m-.923 1.231c.296-.397.604-.807.923-1.231m37.667-29.322c-.814 2.136-1.455 3.962-1.83 5.236m12.996-28.739c1.194-1.709 2.173-2.575 2.759-2.119 1.197.931 1.482 2.553 1.232 4.477m0 0a16.291 16.291 0 01-.538 2.451m.538-2.451a47.274 47.274 0 01-.538 2.451m.538-2.451c.625-3.276.833-6.455.341-9.262m-3.76-2.533a1.62 1.62 0 00-.155-.294m.155.294a59.658 59.658 0 011.852-2.366m-1.852 2.366c-.903 1.208-1.661 2.274-2.19 2.907a1063.015 1063.015 0 00-3.745 4.503m9.695-4.877c-.319-1.814-.929-3.472-1.908-4.899m1.908 4.899c1.724-2.979 5.529-9.848 3.983-9.552-1.944.371-4.057 2.443-5.891 4.653m-2.007 2.072c-.487-.708-1.418-.421-3.011 1.52-3.368 4.104-6.489 8.886-9.067 13.862m12.078-15.382c-2.023 2.676-3.93 4.979-4.643 6.031l-1.137 1.673m5.78-7.704a96.874 96.874 0 001.761-2.4m.246.328l-.03-.045a4.04 4.04 0 00-.216-.283m-7.541 10.104c-2.111 2.552-4.21 5.112-6.298 7.678m13.839-17.782c2.773-3.912 5.165-8.054 4.294-10.082-.587-1.365-10.493 9.827-10.983 10.399-17.005 19.84-33.056 40.123-51.37 59.22-1.058 1.103-2.97 3.135-4.697 4.826m0 0c-.177.173-.35.341-.522.505m.522-.505c-4.049 4.618-6.945 7.588-7.459 7.285-.103-.061.144-.526.67-1.311m6.789-5.974c.264-.301.533-.61.807-.925m-1.329 1.43c-2.004 1.92-3.593 3.169-3.001 1.587.163-.437.358-.878.579-1.322m2.422-.265l-.782.839c-.342.365-2.966 2.593-5.485 4.63m6.267-5.469c.444-.475.887-.952 1.329-1.43m-7.596 6.899c.764-1.143 2.119-2.963 3.845-5.204m-3.845 5.204c-2.499 2.02-4.893 3.851-4.854 3.49.564-5.246 10.508-14.11 13.788-18.18 10.141-12.584 20.219-25.28 30.685-37.731m-32.023 45.522c11.487-13.219 31.022-38.01 33.334-41.015 3.844-4.996 8.356-10.137 12.12-15.445m-45.454 56.46c16.471-17.783 32.407-36.954 45.695-56.666m-49.446 58.361c1.789-3.583 5.345-7.373 8.517-10.776m-8.517 10.776c2.338-3.035 5.358-6.84 8.517-10.776m0 0c1.283-1.376 2.502-2.688 3.517-3.898 11.439-13.638 25.001-27.001 34.863-41.473m-38.38 45.371c7.935-9.886 16.754-20.599 17.873-22.008 4.752-5.983 9.411-12.032 14.269-17.967m6.238-5.396c.081-.117.16-.234.24-.352m-.24.352c-1.966 1.917-4.108 3.742-6.238 5.396m6.238-5.396c.248-.241.494-.484.736-.729m-6.974 6.125a360.654 360.654 0 012.709-3.268m-2.709 3.268a87.681 87.681 0 01-4.885 3.534m11.363-9.282c.22-.325.438-.65.654-.977 2.956-4.462-.988-.573-2.514 1.207-.641.747-1.277 1.497-1.909 2.25m3.769-2.48a36.196 36.196 0 01-3.769 2.48m3.769-2.48c.166-.124.331-.25.496-.377m0 0c.534-.413 1.058-.84 1.572-1.279m-1.572 1.279a47.44 47.44 0 002.853-3.137m-7.118 5.994a30.761 30.761 0 01-3.164 1.577m0 0a651.192 651.192 0 018.723-10c.365-.409 6.832-7.028 4.868-3.159-.956 1.884-2.078 3.746-3.309 5.588m-10.282 7.571a837.768 837.768 0 00-4.43 5.225m4.43-5.225c-2.083.888-4.228 1.507-6.391 1.778m1.961 3.447c-1.886 1.268-3.631 2.331-5.078 3.123a38.91 38.91 0 01-4.66 2.166m23.169-16.227c.438-.617.866-1.236 1.281-1.858m-1.281 1.858l.241-.206m0 0c.469-.697.935-1.393 1.397-2.091m-1.397 2.091c5.716-4.958 10.061-11.395 11.56-16.638 2.62-9.172-7.494-12.184-16.467-8.939m5.947 23.925c.121-.146.24-.292.357-.439m0 0a319.337 319.337 0 003.237-4.978m-3.237 4.978c1.324-1.649 2.437-3.323 3.237-4.978m-20.267 14.766l1.321-1.473m-1.321 1.473c-2.51 2.801-5.115 5.73-7.777 8.736m7.777-8.736c-.662.082-1.325.132-1.989.147m-5.788 8.589c-17.817 20.127-38.164 43.748-49.469 56.228-14.222 15.7 28.245-31.537 41.496-47.784 2.141-2.626 4.291-5.252 6.432-7.887m1.541-.557a35.99 35.99 0 01-1.541.557m20.044-42.567c-.711.257-1.416.554-2.106.89l-.204.1m2.31-.99l.106.089c.537.456.96.974 1.28 1.544m-1.386-1.633c-2.472-2.038-5.396-2.322-8.41-1.56m17.951 20.068a301.874 301.874 0 003.101-4.977c5.335-8.751 3.636-8.491-2.175-2.911m-.926 7.888c1.327-2.745 1.793-5.44.926-7.888m0 0a172.576 172.576 0 00-4.571 4.591m4.571-4.591a7.358 7.358 0 00-.256-.63c-.567-1.239-1.599-2.027-2.934-2.465m-1.381 7.686c-4.198 4.352-9.467 10.095-15.301 16.59m15.301-16.59c-1.35 3.165-3.403 6.227-5.241 8.43-2.674 3.207-5.754 6.664-10.06 8.16m15.301-16.59c1.124-2.636 1.761-5.344 1.381-7.686m0 0c-1.484-.487-3.344-.544-5.362-.312m5.362.312c-.428-2.632-2.141-4.802-5.891-5.892m-10.791 30.168c-.797.277-1.636.487-2.523.616m0 0l-.787 1.004m.787-1.004c3.983-5.092 7.842-10.243 11.448-15.498 1.62-2.361 7.078-10.754.26-4.197m-11.708 19.695l-.345.046-.219.025m-.223.933a578.771 578.771 0 01-2.804 3.535m2.804-3.535c-.109.002-.218.004-.328.004m-7.001 9.142a912.816 912.816 0 003.832-4.745m-3.832 4.745c-.257.087-.514.17-.772.25m4.604-4.995l.693-.866m-.693.866a61.026 61.026 0 01-4.604 4.995m4.604-4.995c.238-.29.469-.579.693-.866m-5.297 5.861a69.331 69.331 0 01-8.084 6.766m8.084-6.766c-1.05.326-2.103.599-3.147.81m8.444-6.671a38.455 38.455 0 002.476-3.531m0 0l-.04.001a14.515 14.515 0 01-2.67-.222m2.71.221c.14-.227.274-.453.403-.677.05-.087.1-.173.148-.26m12.272-19.766l-.051.049a242.529 242.529 0 00-5.163 5.13m5.214-5.179c-2.03 3.775-5.124 7.619-8.38 10.649m8.38-10.649c1.016-1.89 1.765-3.764 2.135-5.509m-14.407 25.275c-.974.111-1.938.18-2.855.181m2.855-.181c1.427-2.543 2.078-4.728 2.124-6.572m4.934-8.015a287.666 287.666 0 00-5.282 5.551m5.282-5.551c-.747 1.599-2.089 3.824-3.166 5.47m3.166-5.47c.736-1.579.892-2.548-.365-1.746-2.269 1.449-4.348 3.157-6.296 4.996m3.495 2.22a41.163 41.163 0 01-.931 1.374c-.278.391-.557.781-.837 1.171m1.768-2.545a39.004 39.004 0 01-1.801 1.58m12.316-17.738c-2.921.334-6.175 1.272-9.107 2.381m9.107-2.381c.446-2.112.337-4.037-.529-5.58m-12.102 21.819c-1.385 1.494-2.755 3-4.112 4.516m4.112-4.516c.157.467.263.967.315 1.499m-.315-1.499a6.237 6.237 0 00-1.379-2.301m0 0c-2.799 2.642-5.328 5.551-7.764 8.34m7.764-8.34a7.259 7.259 0 00-1.08-.943m-1.653 7.76a415.162 415.162 0 00-3.742 4.239m3.742-4.239c-.895.47-1.754.824-2.556 1.042-.872.237-1.697.395-2.475.481m5.031-1.523c1.417-.745 2.921-1.779 4.427-3.017m0 0c.03.311.042.632.033.965m-8.202 6.291l-.05.057m.05-.057a6.143 6.143 0 01-2.031-1.867m2.031 1.867c.084.049.17.096.257.142m-1.546-2.858l-.742.849m.742-.849c-.408.045-.804.071-1.187.078m2.426 2.695c-3.412 3.918-6.755 7.888-10.07 11.872m10.07-11.872c-.971-.294-1.786-.768-2.368-1.482m2.368 1.482c.101.03.203.059.307.085m-2.288-2.009l-.387.442m.387-.442a6.29 6.29 0 01-.445-.771m2.733 2.78c.724.381 1.573.672 2.56.855m-2.56-.855c.891.229 1.897.321 2.966.32m-13.343 11.467c-2.876 3.457-5.73 6.924-8.59 10.379m8.59-10.379a16.539 16.539 0 01-3.282-.305m3.282.305c1.52-.003 3.112-.182 4.727-.509m2.975-12.845c-.271.308-.542.614-.811.917a1026.03 1026.03 0 00-8.14 9.274m8.951-10.191a4.003 4.003 0 01-.674-1.219m-15.618 24.952c-4.349 5.254-8.709 10.477-13.174 15.584-7.86 8.989-15.886 17.888-23.643 26.935-6.039 7.043 5.755-4.621 5.901-4.771 13.421-13.76 26.907-27.985 39.296-42.68m-8.38 4.932a34.046 34.046 0 01-3.741 1.465m3.741-1.465c2.81-1.287 5.652-2.988 8.38-4.932m-3.072-5.752a383.13 383.13 0 002.033-2.858m-2.033 2.858a14.162 14.162 0 01-.369-.08m.369.08a468.978 468.978 0 01-9.049 12.149m17.058-12.353a453.872 453.872 0 01-4.937 5.956m4.937-5.956a392.383 392.383 0 008.21-10.423m-25.268 22.776c-4.796 6.239-9.737 12.403-14.7 18.524-7.509 9.26-15.06 18.832-23.923 27.307-.55.527-3.518 3.19-1.38.308 1.281-1.728 4.503-5.547 5.523-6.771 10.749-12.9 21.385-25.882 32.221-38.748m2.259-.62a28.06 28.06 0 01-2.259.62m27.527-23.396l.406-.535m0 0a330.465 330.465 0 004.979-6.753m-2.807-5.708a7.961 7.961 0 00-.277-.191m.277.191c-.45.395-.92.772-1.407 1.13m1.407-1.13c3.372-2.96 5.658-6.886 5.983-10.614m-13.854 19.975a6.856 6.856 0 01-.447-1.209m.447 1.209a11.43 11.43 0 01-.616-.006m-8.277 11.41c-.802.924-1.603 1.851-2.402 2.778m2.402-2.778a312.416 312.416 0 007.703-11.445m.574.035a11.716 11.716 0 01-.574-.035m.574.035a5.025 5.025 0 01-.178-.656m-10.501 14.844a1464.961 1464.961 0 00-10.939 12.849m10.939-12.849c-4.007-.925-7.045-3.582-7.897-8.705a12.738 12.738 0 01-.097-3.634m18.099-1.884l.396-.621m-.396.621a8.895 8.895 0 01-2.358-.528m-18.686 27.6c-16.331 3.784-6.174-13.574-2.077-19.444.267-.384.696-.983 1.26-1.752m3.762-3.992c.053-.431.129-.852.226-1.264m-.226 1.264c-1.239 1.426-2.467 2.748-3.63 3.868a7.5 7.5 0 01-.132.124m3.762-3.992c2.524-2.903 5.095-6.237 7.265-9.178m-11.027 13.17a220.665 220.665 0 013.988-5.256m-3.988 5.256c-3.035 2.797-4.366-.369-4.97-3.853m27.227-2.644l.347-.547m-.347.547a5.914 5.914 0 01-.101-.774c-.012-.16-.02-.319-.026-.479m-2.627 1.346a10.48 10.48 0 001.575-.719c.352-.199.703-.408 1.052-.627m-2.627 1.346c-2.159-.816-3.617-2.443-4.373-4.448m4.373 4.448c-2.85 1.039-6.545 1.129-7.637-1.573-.567-1.404-.565-2.974-.205-4.589m10.943 5.522c.373-.589.743-1.179 1.11-1.77m-1.11 1.77a7.583 7.583 0 01-.183-.89m-.291.184c.097-.06.194-.122.291-.184m-.291.184c-.036-.989.023-1.991.169-2.998m1.415 1.934a245.55 245.55 0 001.817-2.969m-1.817 2.969c-.428.307-.859.601-1.293.88m1.293-.88c2.061-1.48 4.029-3.27 5.801-5.252m-7.094 6.132a10.294 10.294 0 01.005-2.843m3.105-1.006l.458-.762c.227-.381 1.247-1.914 2.459-3.91m-2.917 4.672a17.807 17.807 0 01-3.105 1.006m3.105-1.006a19.912 19.912 0 003.984-2.283m0 0c.386-.431.763-.872 1.13-1.321m-2.197-1.068c1.34-2.206 2.914-4.979 3.912-7.386m-3.912 7.386a10.09 10.09 0 012.197 1.068m-2.197-1.068c-1.108-.388-2.339-.639-3.644-.756m-2.378 6.434c.285-2.154 1.15-4.418 2.378-6.434m-2.378 6.434l-.127.029m10.061-13.093c.833-2.011 1.265-3.768.82-4.727m-.82 4.727a51.302 51.302 0 014.125-1.808m-4.125 1.808c-1.51.748-2.736 1.466-3.507 2.042-1.537 1.151-2.941 2.768-4.049 4.588m5.841 1.824c2.59-3.172 4.663-6.737 5.84-10.262m-11.681 8.438a21.12 21.12 0 00-.445-.034m8.821-11.323a1.231 1.231 0 00-.493-.553c-3.669-2.172-10.688 3.519-17.424 10.625m17.917-10.072a42.133 42.133 0 012.504-2.05m-2.504 2.05c-3.711 3.283-6.847 7.222-8.821 11.323m12.126-8.404l.42-.161m-.42.161c.164-.491.311-.981.439-1.469m-21.661 8.622c-.576.608-1.149 1.226-1.719 1.85m1.719-1.85c.165-.456.357-.907.577-1.351m-.577 1.351a12.56 12.56 0 00-.662 2.776m21.083-14.898a40.649 40.649 0 011.873-1.334m-1.873 1.334a6.803 6.803 0 011.24 3.5m-1.24-3.5c-.709-1.012-1.687-1.873-2.849-2.596m-8.476 15.969c-3.093-.202-6.559.326-9.758 1.525m9.758-1.525c-1.032 2.145-1.747 4.334-2.06 6.497m-8.755-5.898c-.249.272-.496.546-.743.821m.743-.821c-.313.44-.646.905-.995 1.389m.995-1.389l.499-.703c.56-.794 1.165-1.629 1.797-2.498m0 0c.259-.525.557-1.039.893-1.536a25.316 25.316 0 012.273-2.875m-3.166 4.411c1.01-1.391 2.089-2.871 3.166-4.411m-4.405 8.538c-.774.29-1.532.619-2.266.987m2.266-.987c-.203 1.712-.027 3.392.529 4.868m-2.329-4.973a162.4 162.4 0 00-1.419 1.6m1.419-1.6c1.188-2.582 2.931-5.069 4.377-6.967.871-1.143 2.154-2.644 3.717-4.248m-8.094 11.215c-.087.188-.171.378-.252.568m0 0c-.074.175-.146.349-.214.524m.214-.524c-.155.216-.314.435-.476.658m-.691.374c-.213.243-.425.487-.636.731m.636-.731c.227-.128.458-.253.691-.374m-.691.374c-.279.158-.553.321-.822.49m10.335-13.305c-.619.944-1.254 1.874-1.889 2.782m1.889-2.782c2.529-2.594 5.792-5.457 9.233-7.506m-9.233 7.506c1.86-2.837 3.581-5.81 4.768-8.759m-14.917 22.305a217.338 217.338 0 00-6.758 8.238m6.758-8.238a6.18 6.18 0 01-.186-.241m.186.241c.09.11.183.218.281.324m1.046-1.429l.262-.134m-.262.134c-.337.463-.686.94-1.046 1.429m-.467-.565c-3.218 2.024-5.723 4.879-6.572 8.479m6.572-8.479c-3.825-5.189.669-14.942 5.854-19.037 1.441-1.139 3.722-2.425 6.261-3.463m-11.648 23.065c.194.211.406.412.634.604m-16.631 8.713c2.401-3.303 4.696-6.628 6.919-9.913 4.383-6.476 10.846-14.537 11.235-22.17m-18.154 32.083c-.411-2.369-.486-4.885-.533-5.775-.276-5.295.746-10.834 3.347-15.493m-2.814 21.268c-6.306 8.675-13.34 17.193-21.709 24.406-1.506 1.298-10.581 8.553-11.084 3.165m74.668-49.528a7.911 7.911 0 00.019-1.308m-14.625 16.37c-1.944.42-3.974.5-6.018.146-.403-.07-.786-.154-1.151-.25m-2.795-3.881c-.283.724-.514 1.45-.674 2.167m3.469 1.714c-1.438-.383-2.582-.971-3.469-1.714m11.014-23.669a31.72 31.72 0 013.602-1.233m-3.602 1.233c.998.102 2.001.246 2.988.436m-2.988-.436c-2.364-.243-4.695-.251-6.702-.078-.966.083-1.895.21-2.789.377m32.299 2.165a14.933 14.933 0 00-1.002-.254 18.904 18.904 0 00-2.694-.389m-4.863 7.296c.434-1.649.657-3.275.633-4.834m4.23-2.462a37.302 37.302 0 00-4.23 2.462m4.23-2.462a21.549 21.549 0 00-4.472.16m-1.628-2.71c.782.627 1.351 1.512 1.628 2.71m-1.628-2.71c-1.848.467-3.729 1.327-5.559 2.418m5.559-2.418c-2.103-1.685-5.749-1.505-9.41-.504m11.28 5.516a13.664 13.664 0 00-.138-1.752 7.353 7.353 0 00-.104-.55m0 0a25.94 25.94 0 00-4.48 1.04m0 0c-5.376 1.746-10.352 5.133-13.829 8.956m13.829-8.956a16.342 16.342 0 00-2.707-1.332m0 0c-1.391-.541-2.907-.954-4.465-1.253m.614-1.669a27.903 27.903 0 01-.614 1.669m.614-1.669c.757-2.29 1.144-4.548.971-6.697-.905-11.283-11.328-6.527-20.594.215m0 0c-6.577 4.785-12.572 10.571-14.167 12.332-7.319 8.081-13.408 16.975-18.675 26.032m32.842-38.364c.034 1.191-.191 2.41-.295 2.791-.438 1.598-1.06 3.216-1.813 4.837m2.108-7.628c-.045-1.555-.531-3.064-2.303-2.603-2.186.568-6.148 4.157-7.1 4.964-8.153 6.916-15.577 14.425-23.042 21.837-19.916 19.778-39.551 39.758-60 59.169-7.185 6.821-14.918 15.405-23.977 20.628-6.5 3.748 8.736-10.976 13.526-16.223 14.939-16.362 30.038-32.672 43.565-49.837 2.063-2.619 4.07-5.268 5.966-7.967.826-1.175 3.564-3.077 2.19-3.643-1.418-.583-2.358 2.036-3.41 3.141-4.585 4.814-17.76 19.862-20.841 23.338l-4.536 5.119m86.492-49.909c-5.887 1.098-10.237 3.94-13.255 7.707m13.255-7.707c.024-.473.025-.944 0-1.412-.245-4.708-4.556-2.312-8.638 1.026m-4.617 8.093a22.397 22.397 0 00-2.085 3.108m2.085-3.108a161.697 161.697 0 01-2.085 3.108m2.085-3.108c1.733-2.657 3.357-5.38 4.617-8.093m0 0c-3.281 2.683-6.415 5.976-7.166 6.673-8.2 7.613-16.057 15.695-23.568 24.063m24.032-19.535c-1.655 2.411-3.316 4.741-4.782 6.93-9.559 14.284-19.604 28.409-30.825 41.909m0 0a5.302 5.302 0 01-.021-.413c-.11-8.308 5.32-17.683 9.504-25.21.683-1.229 1.38-2.457 2.092-3.681m-11.575 29.304a340.839 340.839 0 01-6.342 7.413c-7.938 9.008-16.432 20.155-27.038 27.263-2.115 1.417-3.149.7-2.284-1.435 1.138-2.805 4.572-7.839 6.056-9.971 12.306-17.677 26.041-35.705 41.183-52.574m-47.12 19.559c-11.034 12.449-22.11 24.886-33.757 36.96-2.516 2.608-4.469 5.173-.003.98 8.47-7.951 22.156-23.713 33.76-37.94zm0 0c16.127-19.774 28.233-36.584 16.725-25.346-17.26 16.856-31.737 35.566-48.65 52.669-7.11 7.19.552-2.1 2.085-3.947 18.927-22.792 38.701-45.767 54.459-70.097 11.11-17.151-28.538 31.211-44.2 45.863-11.563 10.818-13.812 9.02-10.66-2.461 1.797-6.547 4.177-13.049 6.404-19.529m17.757 50.801c4.105-3.075 8.041-6.103 11.796-9.197m0 0c1.068-.88 2.121-1.765 3.159-2.658m-3.159 2.658c1.137-1.436 2.272-2.871 3.407-4.308 2.884-3.649 6.21-9.003 9.98-14.062m-13.387 18.37c-3.44 4.346-6.888 8.689-10.33 13.035m13.489-15.693c.577-.497 1.15-.996 1.719-1.498m-1.719 1.498c-1.292 1.659-2.602 3.301-3.893 4.927m3.893-4.927c3.923-5.041 7.678-10.251 10.228-15.712m0 0c3.427-4.598 7.22-8.952 11.38-11.559 3.296-2.067-3.789 6.07-6.026 8.948-4.434 5.705-9.092 11.296-13.863 16.825m8.509-14.214c.452-.967.865-1.942 1.236-2.926 1.442-3.832-.577-3.442-3.447-1.656m-21.506 35.987l-.57.637-.382.426c-8.274 9.232-16.539 19.129-26.481 27.249-5.342 4.364-2.925-.279-.918-2.952 15.418-20.536 31.847-41.276 49.255-60.743.079-.088.287-.297.602-.604m-21.506 35.987c3.208-3.58 6.417-7.164 9.596-10.766m-9.596 10.766c-2.487 3.14-4.972 6.282-7.45 9.427m22.658-26.618c6.223-5.5 11.891-11.352 16.947-18.153 1.482-1.994 9.932-12.782 9.074-16.736-.433-1.991-16.32 12.778-19.723 16.093m-6.298 18.796a786.068 786.068 0 01-5.612 6.425m0 0a392.613 392.613 0 00-2.406 3.052c-3.217 4.128-8.801 10.555-14.64 17.141m28.956-45.414c-3.697 2.301-8.806 6.918-9.751 7.812-19.15 18.108-35.979 38.009-56.592 55.056-1.755 1.452-10.121 8.827-6.681 2.096 5.866-11.476 14.88-22.338 22.498-33.134 9.089-12.88 18.151-25.854 26.398-39.085.593-.951 9.951-17.884 4.728-13.816-9.663 7.526-16.425 18.957-23.512 27.984-11.17 14.232-22.465 28.468-34.482 42.249a181.764 181.764 0 01-7.734 8.319c-1.107 1.119-3.522 4.524-3.622 3.139-.079-1.095 1.831-3.415 2.369-4.229 3.982-6.022 8.247-11.936 12.344-17.909 10.933-15.94 22.564-31.906 31.244-48.715 2.028-3.928 3.81-11.825-3.347-5.351-21.574 19.517-35.458 44.217-57.555 63.511-5.699 4.977-.965-5.343-.228-6.896 4.853-10.222 10.799-20.169 14.907-30.591 1.599-4.055 5.032-11.9 2.088-15.75-3.104-4.059-13.102 6.073-14.485 7.43-9.685 9.503-18.99 21.238-26.248 33.436m0 0a142.085 142.085 0 00-4.133 7.433m4.133-7.433c.333-4.142.665-8.813.731-12.565.022-1.276.121-4.041-.611-1.358-1.221 4.479-1.861 9.07-2.77 13.577-.512 2.542-.974 5.152-1.483 7.779m4.133-7.433c-.107 1.332-.215 2.608-.313 3.782l-.04.466c-.525 6.264-1.216 12.532-1.838 18.799m100.896-13.189c-4.1 5.203-8.181 10.416-12.224 15.646m12.224-15.646c-13.255 14.951-27.822 30.722-18.982 22.27a388.203 388.203 0 006.758-6.624m0 0l-1.231 1.594c-3.464 4.494-8.952 11.498-11.991 16.62-.808 1.361-2.272 4.939-.568 4.425 4.378-1.321 9.172-7.264 11.836-9.945a581.836 581.836 0 005.504-5.616m-3.55-7.078c11.396-11.439 21.98-23.385 32.473-35.4 6.775-7.756 12.966-16.863 21.327-23.593 3.078-2.476-1.003 3.87-1.333 4.363-3.703 5.54-7.652 10.998-11.774 16.385m-37.143 45.323c7.904-8.174 15.546-16.529 23.075-24.927a770.789 770.789 0 0020.982-24.435m-44.057 49.362a348.474 348.474 0 002.585-3.109c3.406-4.155 6.809-8.313 10.211-12.472m-12.796 15.581c-4.697 5.591-9.579 11.234-13.152 17.295-2.114 3.587 9.792-6.529 10.565-7.258 12.45-11.732 24.372-23.961 35.907-36.448m3.823-18.912a5308.353 5308.353 0 0124.24-29.346c.672-.807 10.6-11.451 8.334-7.768-3.78 6.144-8.806 11.998-13.356 17.783a869.69 869.69 0 01-12.304 15.292m-6.914 4.039c-6.676 8.134-13.335 16.278-19.995 24.421m19.995-24.421c-6.346 8.293-13.1 16.419-19.995 24.421m26.909-28.46c-6.44 9.825-14.402 19.078-21.567 28.555-1.958 2.589-8.374 9.219-4.967 8.155 4.046-1.262 9.279-7.496 11.97-10.051a268.6 268.6 0 003.827-3.708m10.737-22.951c.517-.79 1.025-1.583 1.521-2.38.528-.847 3.232-5.068.315-2.013-6.204 6.498-11.541 13.563-17.302 20.319-3.427 4.019-10.33 11.771-15.795 17.855m0 0l4.352-5.321m-4.352 5.321c-5.959 6.635-10.209 11.286-6.382 6.956 3.591-4.063 7.181-8.154 10.734-12.277m16.172-5.509c8.118-8.789 16.044-17.705 23.827-26.665m-23.827 26.665c5.911-5.838 11.526-11.881 17.126-17.931m6.701-8.734a1956.648 1956.648 0 0015.237-17.777c4.1-4.836 9.941-10.332 12.648-15.808 3.515-7.113-11.369 12.361-16.458 18.861-3.833 4.896-7.64 9.805-11.427 14.724zm0 0a3066.54 3066.54 0 00-6.701 8.734m0 0a5353.481 5353.481 0 00-12.649 16.62c-4.761 6.276-15.729 16.472-17.023 24.171-.529 3.151 9.023-5.877 9.268-6.125 9.669-9.764 18.711-19.934 27.681-30.129m-7.277-4.537c7.986-8.628 15.941-17.271 24.677-25.359 2.381-2.205 7.086-5.656 4.357-.44-3.646 6.968-8.909 13.573-13.7 20.057-1.89 2.558-4.817 6.258-8.057 10.279m0 0l2.919-3.321.276-.314c11.376-12.946 44.486-52.331 34.117-38.846-5.474 7.119-10.709 14.369-15.9 21.642m-21.412 20.839c-10.409 12.92-24.047 29.16-16.89 21.532 4.986-5.315 27.819-32.432 38.302-42.371m0 0c-5.374 7.528-10.701 15.079-16.2 22.532-2.427 3.289-10.552 12.233-6.647 10.146 2.625-1.403 5.024-3.399 7.255-5.596m15.592-27.082c2.635-2.499 4.49-3.912 5.085-3.619 2.215 1.088-11.005 18.456-20.677 30.701m0 0c3.053-3.008 5.79-6.392 8.354-9.141 10.979-11.772 22.881-23.349 33.435-35.48m-41.789 44.621c-4.341 5.494-7.967 9.958-9.164 11.456-8.424 10.546 19.125-19.774 28.519-29.768 3.263-3.472 6.452-7.036 9.678-10.583m12.756-15.726a237.672 237.672 0 006.249-7.472c5.051-6.313.867-1.259-6.249 7.472zm0 0a4525.468 4525.468 0 00-12.756 15.726m0 0c-5.794 7.174-11.405 14.175-14.807 18.53-4.34 5.555-9.789 11.35-12.727 17.524-2.279 4.79 4.878-1.304 5.839-2.176 10.231-9.289 19.019-19.926 27.602-30.227 4.886-5.865 13.211-13.763 14.808-20.923.681-3.058-5.368 1.584-5.825 2.002-5.28 4.822-10.125 10.028-14.89 15.27zm-186.74 37.308c-3.342 6.468-6.026 12.966-7.81 19.237-1.122 3.943 1.159.922 2.138-.949 3.004-5.743 4.468-12.064 5.672-18.288zm1.942 15.614c-.418 4.206-.805 8.412-1.091 12.616-.174 2.558.564-1.234.673-1.752.704-3.347 1.036-6.795.894-10.139-.068-1.595-.24-1.652-.476-.725zm0 0c-.748 2.923-2.149 15.639-3.008 20.695-1.118 6.567-3.146 14.469.818 20.336 3.157 4.672 5.798 9.702 9.228 14.222 5.469 7.206 14.342 9.044 24.539 7.897 7.207-.811 14.766-.281 21.814-2.071 11.63-2.953 23.845-12.245 32.345-19.362 13.155-11.015 24.646-23.087 38.149-33.929 4.583-3.679 9.689-7.217 13.544-11.464.092-.101.17-.237.241-.388m0 0c.305-.657.464-1.613 1.006-1.363.785.362.133.889-1.006 1.363zm0 0c-1.384.576-3.487 1.075-4.614 1.107m-21.666 16.895c8.85-3.399 15.627-7.184 22.784-12.676.885-.679 6.888-5.403 5.302-3.438-7.823 9.695-36.766 35.206-26.099 27.573 16.505-11.812 31.292-34.081 55.95-31.037 6.466.798 14.537-4.94 21.155-10.262m0 0c2.956-2.378 5.623-4.673 7.727-6.264m-7.727 6.264c1.592-2.396 3.654-4.955 5.74-7.239m-5.74 7.239c-1.803 2.712-3.003 5.215-2.951 6.867.098 3.082 8.137-2.332 8.705-2.767a117.561 117.561 0 008.16-6.883m-6.187-3.481l.304-.228c1.336-.993 8.165-9.157 5.008-7.303-1.812 1.063-4.576 3.575-7.299 6.556m1.987.975a85.415 85.415 0 016.187 3.481m-6.187-3.481a79.409 79.409 0 00-1.987-.975m0 0a75.659 75.659 0 00-5.526-2.351m13.7 6.807l.644-.596m-.644.596c.233.144.466.29.699.436m-14.399-7.243c8.794-5.31 18.11-10.029 24.484-17.671 1.566-1.878-1.156 4.215-1.384 4.853-1.574 4.403-2.628 9.485-5.665 13.495-1.232 1.628-2.904 3.612-3.091 5.534m-14.344-6.211c-2.441 1.474-4.842 2.994-7.129 4.634-1.162.834-17.945 12.526-18.323 11.137-.604-2.221 5.125-8.274 6.073-10.467a59.334 59.334 0 003.152-9.406m16.227 4.102a73.556 73.556 0 00-16.227-4.102m30.571 10.313c3.115-2.901 6.078-5.918 8.911-8.945 2.96-3.163 12.29-17.394 13.983-9.02 1.207 5.968 4.47 5.083 6.985-.695 3.227-7.416 6.367-14.767 10.178-22.053 1.266-2.421 2.156-5.044 2.876-7.728m-42.933 48.441c-.034.344-.02.685.052 1.022l.003.01m0 0c.806 3.73 3.97 2.591 1.583 1.02a98.882 98.882 0 00-1.583-1.02zm42.878-49.473c1.137-4.238 1.849-8.628 2.949-12.62.17-.619 3.026-11.898 5.244-9.298 5.913 6.932.149 23.645-2.385 31.387-3.166 9.673-9.366 21.173-17.761 28.742-1.603 1.445-3.577 2.417-5.705 3.156m17.658-41.367a13.01 13.01 0 00.025 1.64c.529 6.591-.083 12.321-3.883 18.629-3.832 6.364-8.209 14.752-13.8 21.098m17.658-41.367c.196-4.318 2.311-8.633 2.835-12.968.517-4.278-3.219-11.546-7.446-13.854-.469-.255-5.004-3.018-4.794-3.399.217-.395 3.012 1.537 3.122 1.609 1.444.944 3.994 2.328 6.001 2.369 3.602.072 5.648-3.929 2.573-5.504-2.755-1.41-4.777-2.835-8.122-3.211-6.958-.783-14.287-.762-21.038-2.213m9.211 78.538c-3.224 1.12-6.799 1.705-9.967 2.596-1.36.382-8.604 1.383-5.805 3.093 3.797 2.319 8.165 1.249 11.541-1.542 1.486-1.228 2.893-2.629 4.231-4.147zm-9.211-78.538c-2.072-.445-4.09-1.028-6.026-1.816a24.67 24.67 0 00-2.713-.928m8.739 2.744a8.395 8.395 0 00-.517.159c-5.675 1.96-11.568.111-16.722 3.148m17.239-3.307c2.325-.634 3.968-.046 2.251-1.998-3.294-3.746-7.103-2.976-10.99-.746m0 0c-9.932-2.75-18.44 2.06-24.013 10.602-.586.898-5.276 8.94-6.539 13.525m30.552-24.127c-2.848 1.634-5.739 4.052-8.5 6.051m0 0a12.013 12.013 0 00-1.713 1.225m1.713-1.225l-.527.378c-.397.28-.793.563-1.186.847M281.3 188.042c-.619 2.248-.414 3.665 1.503 2.999 7.978-2.769 12.659-14.622 18.836-19.85M281.3 188.042c6.453-5.883 13.08-11.613 20.339-16.851M281.3 188.042c-3.864 3.523-7.666 7.1-11.503 10.659-1.914 1.775-5.178 4.647-8.454 7.531m0 0c-6.646 5.852-13.338 11.752-8.892 8.636 3.33-2.334 6.254-5.35 8.892-8.636zm0 0c4.306-5.361 7.849-11.442 11.151-16.453.533-.809 8.074-14.319 3.996-12.984-9.09 2.974-16.961 15.415-22.757 21.37-4.288 4.406-16.956 17.687-13.316 12.914 6.487-8.504 13.513-17.207 18.54-26.324 4.582-8.309-5.414 1.102-7.659 3.249-5.077 4.857-10.559 9.307-15.952 13.904-5.573 4.751 9.557-10.626 13.796-16.219.463-.612 3.687-4.99 6.24-9.37m0 0c.467-.801.911-1.602 1.313-2.38m-1.313 2.38c.29-2.537 1.222-5.545 1.258-6.075.234-3.494-4.504 6.421-7.975 8.603-1.814 1.141-3.674 1.829-5.564 2.255m12.281-4.783c-.312 2.731.119 4.916 3.211 2.879 6.298-4.15 8.187-11.466 12.77-16.613.358-.402.912 3.571 1.754 3.889 2.967 1.119 3.945-6.657 3.937-7.55-.086-10.352-7.02-2.71-11.01 2.876-2.982 4.174-5.471 8.834-9.082 12.703-.325.348-.379.072-.267-.564m0 0c1.301-2.524 2.145-4.807 1.816-6.061m-1.816 6.061c.224-1.282 1.118-4.023 1.816-6.061m-15.41 13.224a274.033 274.033 0 015.239-6.338c1.044-1.226 5.763-8.053 8.806-7.893.779.041 1.207.406 1.365 1.007m-15.41 13.224c-5.089 6.357-9.814 12.909-13.908 19.699-7.449 12.353-16.395 26.447-10.888 39.784 3.405 8.245 21.771 1.702 29.276-.285 3.567-.945 28.272-8.751 26.943-1.072a43.932 43.932 0 01-.568 2.73m-30.855-60.856c-2.563.579-5.18.676-7.811.767m23.221-13.991c.459-1.341.833-2.376.875-2.491 1.358-3.72 3.6-8.274 4.044-12.399m0 0c.045-.426.072-.848.077-1.264m-.077 1.264c.108.007.22.01.336.006.84-.022 1.466-.333 1.919-.859m-2.255.853c-1.787-.122-2.39-1.66-2.36-3.757m12.886 92.727c-.459-.063-.92-.122-1.384-.177-19.113-2.261-36.167 3.962-52.556 12.796-19.059 10.273-33.557 24.469-43.899 40.647m59.173-113.355c-1.213.042-2.43.084-3.646.17m3.646-.17c-.531.706-1.068 1.41-1.608 2.113-5.091 6.609-3.64 1.913-2.038-1.943m3.646-.17c6.01-7.976 11.515-16.194 17.567-24.15l.015-.02c.327-.433 5.171-6.847 8.198-8.468m-84.953 145.993a122.982 122.982 0 00-1.965 3.179m1.965-3.179c-.07.255-.149.523-.237.801m.237-.801c.705-2.596.395-3.97-1.982-2.519-10.472 6.393-17.789 16.835-26.05 25.291m26.067-19.593c-.374.627-.742 1.257-1.104 1.889m1.104-1.889a334.84 334.84 0 011.728-2.378m-1.728 2.378a179.666 179.666 0 00-3.059 4.384m4.787-6.762c1.144-1.562 2.298-3.113 3.441-4.655.42-.566 8.58-10.687 6.913-8.183-2.719 4.086-6.042 7.972-9.108 11.892l-1.64 2.096m.394-1.15c-.117.367-.249.751-.394 1.15m-27.401 20.821a87.053 87.053 0 01-2.117 2.097c-4.485 4.287-1.438-.272 3.714-7.299m-1.597 5.202c.725-1.92 1.263-3.733 1.597-5.202m-1.597 5.202c-3.18 8.415-9.964 18.886-19.003 11.504-7.636-6.236-9.63-16.24-14.07-24.574m58.036-4.634a124.905 124.905 0 00-5.795 11.451c-.059.134-.115.264-.167.388m5.962-11.839c-.651.832-1.302 1.664-1.955 2.495m1.955-2.495l2.438-3.117m-4.393 5.612c-5.314 6.776-10.669 13.534-16.201 20.196-1.869 2.251-8.195 8.442-5.598 6.758 4.421-2.867 8.195-7.952 11.712-11.493 1.647-1.658 3.291-3.317 4.94-4.973m5.147-10.488c-1.518 2.254-2.959 4.535-4.262 6.848-.682 1.209-1.245 2.829-.885 3.64m1.14-1.144c-.28.674-.451 1.209-.53 1.625m.53-1.625c.891-.892 1.783-1.782 2.678-2.671m-2.678 2.671l-1.14 1.144m9.54-16.1c-1.38 3.799-3.95 8.907-5.722 12.285m-3.208 4.296c-.136.72.005 1.082.335 1.185m-.335-1.185a.807.807 0 01-.61-.481m.61.481c.247.05.566.028.968-.085m2.24-4.211c3.132-3.108 6.299-6.191 9.548-9.217 1.322-1.231 9.983-9.048 14.423-11.105m-23.971 20.322c-.946 1.805-1.664 3.116-1.852 3.471-.124.235-.255.484-.388.74m-.633 1.27c1.103.346 4.319-2.207 6.312-3.911.423-.361.845-.723 1.267-1.086m-7.579 4.997c-1.169 2.468-1.757 4.677 2.379 1.495 2.812-2.164 5.474-4.478 8.113-6.807m-10.492 5.312c.2-.425.419-.857.633-1.27m0 0c.375-.106.822-.29 1.352-.568 1.888-.99 3.752-2.047 5.594-3.159m0 0a421.185 421.185 0 007.589-6.655m-7.589 6.655a137.246 137.246 0 004.994-3.166m-2.081 2.851c.373-.514.747-1.026 1.12-1.537l.018-.026.943-1.288m-2.081 2.851c-2.942 4.053-5.851 8.2-7.995 12.543-1.801 3.648.025 2.459 2.49.157 7.754-7.245 16.393-16.498 21.552-25.64m-16.047 12.94c1.905-1.68 3.797-3.369 5.726-5.015.728-.621 1.456-1.245 2.184-1.871m-3.234.546a232.666 232.666 0 007.436-6.977c1.289-1.27 4.509-3.968 6.854-6.618m-14.29 13.595c3.652-4.841 7.489-9.615 11.676-14.151m-11.676 14.151a361.646 361.646 0 00-2.595 3.489m0 0a190.992 190.992 0 005.829-4.035m11.056-13.049c1.577-1.782 2.758-3.543 2.691-4.833-.092-1.753-3.473 2.31-4.821 3.756l-.484.521m2.614.556c-.007.663-.295 1.668-.934 3.09a44.83 44.83 0 01-1.038 2.15m1.972-5.24c.015-1.29-1.032-1.289-2.614-.556m.642 5.796a53.951 53.951 0 01-.947 1.755m.947-1.755c7.895-6.727 16.032-13.347 24.881-19.013 7.419-4.749-7.583 7.058-9.153 8.179-5.524 3.942-11.047 8.295-16.675 12.589m.947-1.755c-3.055 2.603-6.074 5.222-9.084 7.809m0 0a353.511 353.511 0 008.137-6.054m-43.748 16.105c5.569-7.596 13.597-18.076 17.232-23.385 3.179-4.646 6.229-9.502 8.453-14.48 2.134-4.776-7.923 7.147-8.391 7.722a5457.775 5457.775 0 01-15.538 18.959m-1.756 11.184c.049-.214.093-.42.133-.619.709-3.524 1.206-7.044 1.623-10.565m-36.426 3.316c-.21 1.2-.302 1.665-.14.556l.095-.64m.045.084l-.045-.084m.045.084c.381-2.18 1.149-6.789 1.477-8.802.1-.616.9-4.24 1.617-8.041m33.332 13.527c-2.26 2.748-4.536 5.511-6.71 8.147m6.71-8.147c.052-.442.104-.883.154-1.325m-6.864 9.472a4437.145 4437.145 0 01-9.857 11.917m9.857-11.917c-1.564 3.736-3.469 7.291-5.993 10.296-1.915 2.279-3.122 2.506-3.864 1.621m9.857-11.917c.212-.506.417-1.015.617-1.526m6.247-7.946a1612.658 1612.658 0 01-6.247 7.946m6.247-7.946c8.848-11.329 17.5-22.758 25.767-34.359 2.687-3.772 4.414-6.269 6.74-9.989.69-1.103 2.888-2.716 1.771-3.412-1.071-.667-20.529 21.362-21.445 22.357-3.719 4.046-7.484 8.063-11.344 12.017m-1.489 13.386c.491-4.321.888-8.645 1.441-12.977.016-.134.033-.27.048-.409m-18.21 34.775c-4.261 5.126-5.901 7.038-1.998 2.182l1.879-2.339m.119.157a2.152 2.152 0 01-.119-.157m10.593-13.286c-3.512 4.44-7.046 8.867-10.593 13.286m10.593-13.286c2.161-5.526 3.674-11.334 5.415-16.273a567.88 567.88 0 001.453-4.173m-17.461 33.732c-.655-.953-.904-2.857-.955-4.913m0 0c3.982-5.685 6.454-13.362 8.309-18.94m-8.309 18.94c-.087-3.549.418-7.55.453-7.893.152-1.486.316-2.975.5-4.465m-.953 12.358c-1.94 2.769-4.238 5.065-6.998 6.417-4.279 2.095-4.489-3.328-4.69-5.333a78.733 78.733 0 01-.23-2.656m30.334-27.247l.868-.886m-.868.886a326.584 326.584 0 01-10.107 9.879m10.107-9.879c.339-.985.697-2.037 1.059-3.115m-.191 2.229c.075-.679.134-1.43.191-2.229m0 0c1.169-3.481 2.376-7.234 3.093-9.919m-3.093 9.919c.162-2.276.305-4.935.751-7.379m-11.917 20.373a266.065 266.065 0 01-4.204 3.844c-.105.094-1.41 1.283-3.152 2.738m7.356-6.582c.392-1.177.755-2.261 1.1-3.212.929-2.564 2.41-6.019 3.675-9.668m-12.131 19.462c-3.199 2.671-7.872 6.241-9.301 5.59m9.301-5.59c.391-3.179.868-6.364 1.495-9.534m10.636-9.928c1.357-3.915 2.465-8.053 2.379-11.559m-2.379 11.559c-3.803 3.878-7.882 7.832-10.636 9.928m10.636-9.928a399.682 399.682 0 007.142-7.493m-28.574 32.545c-.408-.186-.552-.717-.32-1.713a36.346 36.346 0 011.141-3.86m-.821 5.573c-.722 2.096-1.885 4.196-3.57 5.196m3.57-5.196c.587-1.704.882-3.405.926-4.508a6.988 6.988 0 00-.105-1.065m9.975-9.551a92.247 92.247 0 011.552-6.605m-1.552 6.605c-1.782 1.356-3.009 1.934-3.246 1.21-.219-.669-.261-1.447-.159-2.306m-6.57 10.647c.927-2.618 2.146-5.247 3.526-7.855m-3.526 7.855c-.208-1.267-.761-2.967-1.974-1.354-2.525 3.356-2.682 8.108-2.417 12.123m0 0a4.34 4.34 0 01-.854.392c-2.596.864-2.529-6.253-2.581-6.816-.131-1.435-.435-12.265-.338-20.525m11.69 8.325c1.568-2.963 3.341-5.898 5.125-8.756m-5.125 8.756c-1.329 1.047-2.453 1.619-3.056 1.243-2.754-1.718.647-5.994 1.657-8.907a167.701 167.701 0 013.044-8.063m-1.645 15.727c.949-.747 2.002-1.735 3.044-2.792m2.081-5.964c1.593-2.553 3.193-5.045 4.662-7.442.588-.96 1.18-1.918 1.778-2.874m-6.44 10.316c1.767-3.515 4.323-7.286 6.44-10.316m-6.44 10.316c-1.088 2.162-1.877 4.228-2.081 5.964m-1.399-12.935c5.799-6.496 11.146-13.286 16.415-20.061 7.302-9.386 13.759-19.685 22.153-28.484 2.041-2.139-2.421 5.022-3.947 7.422-8.052 12.667-16.759 25.067-24.701 37.778m-9.92 3.345c-.43.481-.862.961-1.298 1.439-5.485 6.03-3.374 1.863-1.183-2.463l.357-.704c4.971-9.812 9.968-19.675 12.67-30.001l.072-.275.1-.38m-10.718 32.384c3.301-8.156 7.131-16.187 10.637-24.3.18-.415 5.135-14.348 2.696-11.42a74.166 74.166 0 00-2.615 3.336m-9.319 45.319c1.94-1.969 3.841-4.177 4.957-5.509m3.564-10.771c1.339-1.916 2.502-3.536 3.179-4.606 3.81-6.027 7.369-11.261 11.423-17.131 5.514-7.982 10.882-16.634 17.916-23.85 1.522-1.561 2.208-1.862 1.381.226-.302.762-.665 1.51-1.055 2.25m0 0c-.195.368-.397.735-.602 1.1-.901 1.603-2.323 3.943-3.804 6.328m4.406-7.428a568.68 568.68 0 00-1.768 2.609c-2.358 3.504-3.113 4.955-2.638 4.819m4.406-7.428c7.85-11.521 16.171-22.842 24.009-34.369 4.989-7.335 9.108-13.473 13.673-20.858 1.827-2.957 7.305-11.447 4.255-9.263-8.214 5.882-14.287 16.639-19.93 23.951a5306.336 5306.336 0 01-42.556 54.363c-.32.403-1.323 1.661-2.369 2.991m-9.128-2.743c1.508-5.768 3.679-14.352 1.612-20.014m-1.612 20.014c-4.737 6.394-8.551 13.441-12.631 19.992-3.648 5.86-7.182 11.779-11.018 17.569m25.261-57.575a10.457 10.457 0 00-.239-.597c-.071-.163-.167-.26-.283-.303m.522.9l.333-.333c15.019-15.109 28.393-31.231 41.741-47.321l.229-.275c2.721-3.281 5.409-6.781 8.216-10.24m-50.519 58.169c-1.346 1.344-3.997 3.933-6.594 6.164m-18.667 51.411c.413-2.373.732-4.597.761-5.962m-.761 5.962c-.128.734-.264 1.483-.404 2.225m.404-2.225l-.378.569m25.117-59.044c-.218-.081-.506.032-.829.267m.829-.267c-.335.461-.637.748-.786.398a.717.717 0 01-.043-.131m.829-.267c.353-.487.743-1.169 1.03-1.508 3.986-4.721 9.484-11.991 12.863-16.458l.242-.321c15.423-20.392 30.398-41.001 45.229-61.67 4.247-5.917 10.09-14.134 14.496-20.22 1.602-2.211 3.167-4.441 4.839-6.618l.093-.122c1.096-1.429 3.237-4.219 1.518-.487-6.784 14.736-15.883 29.079-24.781 43.08l-.236.371c-1.414 2.226-2.83 4.454-4.252 6.684m0 0c1.872-2.307 3.797-4.595 5.82-6.788m-5.82 6.788a1741.79 1741.79 0 01-5.265 8.215m-51.848 56.118a421.156 421.156 0 012.338-3.363c.637-.906 1.929-2.724 2.905-3.434m-5.243 6.797c-4.678 6.8-9.17 13.686-14.054 20.393m14.054-20.393c-4.916 4.224-9.639 7.164-4.946-2.064 7.807-15.351 18.336-30.101 27.835-44.828 8.096-12.55 18.821-25.751 25.827-39.149M142.42 227.65c-.189-.816 1.045-1.654 1.567-2.458 1.378-2.124 2.828-4.218 4.256-6.321 12.032-17.702 23.977-35.397 35.078-53.481 9.243-15.056 18.428-30.217 26.544-45.667.958-1.826 3.487-7.266 1.977-5.695-8.519 8.861-14.869 19.793-22.137 29.334a898.881 898.881 0 00-3.812 5.044m0 0a83.626 83.626 0 003.359-7.19c2.618-6.432-9.678 11.182-14.044 17.013-11.908 15.9-23.923 31.739-36.418 47.342m47.103-57.165c-14.044 18.71-27.74 38.177-44.105 55.526-.587.623-2.497 1.732-2.998 1.639m-15.667 49.269a215.798 215.798 0 01-2.319 3.128 22.037 22.037 0 01-1.19 1.454m3.509-4.582c.464-4.185.803-8.363.964-12.529.419-10.916-2.984 6.176-3.147 7.267-.488 3.279-.92 6.561-1.326 9.844m3.509-4.582c-.927 8.337-2.351 16.702-3.852 25.056m.343-20.474c-3.337 3.711-5.159 2.437-6.187-.474m6.187.474a784.946 784.946 0 00-.486 4.016m.143 16.458c-.375 2.088-.756 4.176-1.134 6.262m1.134-6.262c.017-.815-.069-1.324-.301-1.376-.497-.112-.738 3.185-.833 7.638m-4.71-27.21c-.468-1.326-.77-2.991-.976-4.68m.976 4.68a678.87 678.87 0 01-6.296 13.961c-.661 1.417-5.905 13.191-3.727 4.812.913-3.511 1.837-7.016 2.729-10.525m7.294-8.248c4.142-9.48 7.742-18.468 4.128-13.113-1.82 2.697-3.516 5.53-5.104 8.433m6.677 9.17a63.184 63.184 0 00-1.076 2.958c-4.188 12.485-9.249 25.634-10.512 38.445m11.588-41.403c-.561 4.735-1.093 9.471-1.683 14.205m1.683-14.205c.78-1.974 1.659-3.796 1.827-2.566.702 5.105-1.662 11.382-3.51 16.771m-4.994-23.375c-.285-2.345-.383-4.736-.475-6.328-.159-2.763 2.254-10.618.126-8.338-2.355 2.522-2.273 11.69-2.888 14.582-.926 4.353-1.98 8.685-3.081 13.012m6.318-12.928c-2.316 4.233-4.403 8.612-6.318 12.928m0 0a319.4 319.4 0 00-2.494 5.793c-3.324 7.921.083 17.664 1.773 25.335.483 2.194 1.133 4.445 2.128 6.517m0 0c.213.446.443.882.69 1.309.737 1.27 1.406 1.787 2.007 1.789m-2.697-3.098l-.044.456c-.709 7.751.787 16.819 6.321 22.945 2.471 2.735 5.47 2.075 5.372-1.715-.155-6.05-6.728-12.297-8.774-17.984a9.282 9.282 0 01-.178-.604m0 0c1.47.005 2.534-3.065 3.19-5.725m-3.19 5.725c-.77-2.873-3.041-13.52 1.081-8.604a28.242 28.242 0 012.109 2.879m0 0c.444-1.797.701-3.406.771-3.757a216.338 216.338 0 001.508-8.395m-2.279 12.152c.549.852 1.059 1.73 1.54 2.628m.739-14.78c.664-4.136 1.224-8.277 1.739-12.419m-1.739 12.419c-.924 1.644-2.082 4.331-2.996 3.273-1.481-1.711 3.197-10.907 3.823-12.927.275-.886.586-1.812.912-2.765m-1.739 12.419c.142-.253.279-.482.408-.668.663-.955 1.315-1.914 1.958-2.878m-3.105 18.326c.905-6.086 1.996-12.2 3.105-18.326m0 0l.065-.358m-.065.358l.06-.089m.005-.269l-.005.269m0 0c-.011.538-.02 1.091-.026 1.656m31.154-14.858c-.035-1.385-.256-2.671-.721-3.806-1.28-3.115-8.865 12.782-9.266 13.935a77.02 77.02 0 00-1.476 4.753m11.463-14.882c-3.283 4.667-6.732 9.249-10.46 13.669-.035.042-.407.503-1.003 1.213m11.463-14.882c5.454-7.754 10.448-15.741 15.498-23.601a658.357 658.357 0 005.041-7.971m-15.776 35.638c.353-1.932.895-3.731 1.787-5.101 1.581-2.431 1.439-.744.555 2.561m-2.342 2.54a363.56 363.56 0 002.342-2.54m13.434-33.098c1.687-.484 18.897-20.989 34.965-40.634m-48.399 73.732c.294-.322.458-.503.466-.513 14.95-18.236 28.457-37.346 41.436-56.508 3.747-5.531 10.988-13.653 12.495-20.089.326-1.389-5.134 2.595-5.641 3.057-.128.118-.248.224-.357.321m0 0c-2.688 2.371.268-1.359 4.913-6.023m-4.913 6.023c1.656-2.025 3.3-4.04 4.913-6.023m-58.39 56.044c-.943 1.2-1.919 2.461-2.459 3.208-.685.95 1.472-1.852 2.162-2.8l.297-.408zm0 0c14.987-20.602 29.612-41.485 42.778-62.855 3.44-5.582 10.173-17.025 13.32-23.124 1.589-3.078 4.71-6.568 3.429-9.563-.556-1.3-3.474.904-4.699 1.964-2.114 1.827-4.103 3.803-6.005 5.864m9.567 31.67c4.505-4.523 10.597-9.924 14.675-11.496 2.404-.926 4.846-1.286 7.292-1.461m-21.967 12.957c7.258-8.923 13.901-17.197 18.269-22.743 3.286-4.173 7.691-11.492 12.835-14.749.857-.543.954 1.638.669 2.486-2.459 7.325-6.529 14.361-9.596 21.55l-.21.499m29.426-32.808c.889-.477 1.622-.539 2.037.087m-2.037-.087c.044-3.12 1.49-7.479 2.529-10.265m-.092 12.758a10.41 10.41 0 00-.07-1.352c-.056-.465-.169-.812-.33-1.054m.4 2.406c-.272.052-.383-.942-.4-2.406m.4 2.406a.156.156 0 00.042-.016c1.142-.632 1.764-.272 2.136.427m0 0c2.334-2.714.055-11.14-1.328-15.13m1.328 15.13c.368.691.491 1.713.629 2.43.139.719.851 5.884 2.022 2.734 2.076-5.583 2.412-11.7 3.24-17.406 3.168-21.842-3.872-47.63-20.174-64.071-2.753-2.777-.858-5.297-5.707-6.568-5.23-1.371-11.067-1.94-15.87-4.145-23.144-10.626-52.194-4.126-78.036-3.928m111.318 88.137c-.039-3.24.375-8.778.492-10.352m0 0l.023-.322c.02-.281.112-1.391.259-2.932m-.282 3.254c.302-.809.569-1.486.758-1.961m-64.247 26.321c-3.47 4.709-7.236 9.802-11.085 15.003m11.085-15.003c4.682-6.353 8.825-12.007 11.907-16.281 4.14-5.744 8.18-11.533 12.42-17.23 2.222-2.986 3.852-4.877 1.358.482-6.843 14.708-14.867 29.132-22.699 43.541-2.106 3.876-8.286 15.46-5.471 11.876 7.123-9.068 12.702-18.996 18.558-28.586 5.192-8.501 10.316-17.034 15.749-25.443 5.058-7.828 2.458.393 1.927 4.137-.907 6.401-1.683 12.872-1.548 19.26.144 6.846 3.103 3.279 4.966-1.2 4.621-11.109 12.189-45.495 10.213-34.013-1.084 6.298-2.614 12.566-3.844 18.855-.206 1.053-3.026 18.319-.218 15.846 7.311-6.44 10.254-33.1 10.726-24.626.31 5.576-.506 11.276-.452 16.873.065 6.738 2.256 6.826 4.023.218.78-2.915 1.279-21.651 5.895-11.937.069.144.157.351.261.614m-74.856 42.617c-10.306 15.972-21.057 31.856-33.346 46.844-14.723 17.955 10.747-16.306 33.346-46.844zm74.856-42.617c.136.344.299.782.476 1.293m-.476-1.293c.506-5.292 1.664-15.673 2.794-15.072 4.282 2.277-1.084 13.212-2.117 15.856l-.201.509M138.79 205.571c-2.942 3.673-5.91 7.333-8.91 10.978-4.508 5.476-17.919 21.946-13.807 16.274 9.149-12.624 18.575-25.12 27.894-37.667m-5.177 10.415c-.116-.021-.157-.107-.089-.279 1.393-3.477 3.28-6.82 5.266-10.136m0 0a1663.985 1663.985 0 0013.938-18.999c4.651-6.45 12.784-17.74 17.55-24.852 1.179-1.761 2.49-3.488 3.355-5.355 1.282-2.765-4.387 4.775-6.283 7.316-7.4 9.913-14.425 19.984-21.557 30.007m-7.003 11.883c1.509-2.518 3.076-5.02 4.525-7.551l2.478-4.332m0 0c-6.381 8.968-12.849 17.898-19.747 26.642-1.69 2.143-8.079 10.29-11.047 13.284-.337.34-1.255 1.209-1.275.787-.045-.924.735-1.801 1.184-2.679 7.83-15.347 18.467-30.019 27.908-44.775 4.642-7.255 9.38-14.511 13.724-21.895m-10.747 28.636a6265.275 6265.275 0 0033.036-58.603m-22.289 29.967a227.315 227.315 0 003.842-6.777c.49-.901 1.442-2.715-.011-.718-3.613 4.962-6.844 10.125-10.236 15.182l-1.49 2.225m7.895-9.912a1130.657 1130.657 0 01-7.895 9.912m7.895-9.912c6.43-8.174 12.692-16.431 18.598-24.853a298.152 298.152 0 013.691-5.114m0 0c5.794-7.9 12.339-16.682 14.798-25.107 1.584-5.427-6.406 10.015-9.256 15.146a7431.88 7431.88 0 01-5.542 9.961zm-30.184 39.879c-11.011 16.476-22.118 33.646-36.267 48.524l-.119.125c-2.213 2.326-3.488 3.666-4.927 6.374-1.786 3.358-4.27 6.475-6.62 9.599-1.65 2.194 1.653-4.922 2.853-7.288 8.413-16.582 24.234-31.656 36.347-46.552 2.918-3.589 5.834-7.18 8.733-10.782zm-19.187-7.726c4.728-4.628 11.312-9.82 16.617-15.47m0 0c3.872-4.122 7.062-8.488 8.354-13.056m-8.354 13.056c-.185.261-.372.522-.56.782-4.971 6.905-12.263 18.204-21.371 23.063m21.931-23.845c3.026-4.248 5.846-8.601 8.354-13.056m0 0a16.73 16.73 0 00.448-2.063 9.22 9.22 0 00.072-1.79m-.52 3.853c3.384-6.014 6.197-12.214 8.167-18.594.886-2.866 2.021-6.907 2.21-10.771m-40.662 66.266c-.858-2.023-1.821-4.06-2.499-6.152m2.499 6.152c-.736.393-1.484.743-2.243 1.046-4.598 1.834-7.778-.865-8.359-4.256m10.602 3.21c.639 1.507 1.219 3.006 1.58 4.514m29.225-45.268c-.093-1.458-.629-2.981-2.558-1.916-.356.196-.705.407-1.047.631m3.605 1.285c-5.093 9.247-12.26 18.138-19.124 26.047-2.354 2.712-12.598 12.221-7.651 3.053.455-.844.934-1.682 1.431-2.514m25.344-26.586c2.352-4.272 4.262-8.62 5.495-12.982 1.55-5.487-1.656-4.153-5.34-1.34m9.702-11.19c.014-.285.023-.569.026-.851m-.026.85a6.605 6.605 0 01.026-.85m-.026.85c.044 1.202.45 2.285 1.328 3.186 4.863 4.991 19.75-11.247 21.908-13.97 3.663-4.623 8.577-11.742 9.102-17.764m-45.8 52.776c-4.967 3.243-8.572 9.202-11.659 13.405-3.472 4.728-7.112 9.497-10.08 14.466m21.739-27.871c-5.205 10.017-14.229 19.735-21.739 27.871m21.739-27.871c1.584-3.049 2.814-6.125 3.541-9.193.411-1.739.456-2.99.219-3.844m-25.499 40.908l-.192.207-.035.04c-.484.525-4.429 4.809-7.733 7.769m33.459-48.924c-1.764 1.347-3.638 3.033-5.152 4.471m5.152-4.471c-.362-1.306-1.383-1.685-2.761-1.464m-30.698 50.388c-2.237 2.003-4.179 3.398-4.555 2.61-.316-.662-.149-1.586.237-2.572m4.318-.038a26.494 26.494 0 01-.193-.624c-.24-.82-.447-1.645-.626-2.475m29.126-41.354c-1.492 1.419-2.634 2.596-2.976 2.97-10.116 11.084-19.356 23.585-26.579 36.067m29.555-39.037c-4.132 9.414-9.791 18.643-16.236 26.704l-.192.24c-3.432 4.292-7.698 9.629-12.698 14.41m29.126-41.354a102.037 102.037 0 002.391-5.935m0 0c-4.11.661-11.39 6.669-13.795 9.36-4.945 5.536-9.118 11.618-12.967 17.669-1.769 2.781-3.964 5.932-6 9.228m32.762-36.257a86.074 86.074 0 002.994-9.92c1.46-6.222-1.543-13.766-9.007-6.144-10.032 10.243-17.118 22.935-23.199 34.877-4.07 7.99-8.429 16.321-12 24.79m9.266 1.369l-.427.742c-.584 1.021-1.958 2.963-2.643 4.712m3.07-5.454c-.376-2.393-.567-4.816-.707-7.251-.02-.346-.021-1.068-.109-1.464m.816 8.715c.122.776.264 1.548.429 2.317m0 0a69.475 69.475 0 01-3.499 3.137m0 0a55.051 55.051 0 01-3.785 2.904m6.039-17.073c-3.214 5.204-6.029 10.769-6.133 15.807-.009.428.023.852.094 1.266m6.039-17.073c-.055-.252-.145-.371-.297-.181-2.162 2.718-5.09 5.278-8.153 7.527m2.411 9.727c-2.334 1.63-4.786 3.041-7.348 4.12m4.937-13.847c-1.934 4.585-3.637 9.212-4.937 13.847m4.937-13.847a73.68 73.68 0 01-3.675 2.523c-9.028 5.814-20.499 7.766-30.461 4.017-7.36-2.77-9.103-11.698-4.433-17.237 1.513-1.795 4.072-4.011 6.97-5.618m26.662 30.162c-4.337 1.826-8.991 2.699-13.926 2.072-7.475-.952-6.255 2.064-4.217 7.105l.104.257c1.631 4.038 3.506 8.016 5.376 11.986m12.663-21.42c-.952 3.395-1.688 6.795-2.141 10.187-2.024 15.157 16.585-2.28 21.468-6.411l.203-.172m0 0c8.775-7.455 16.405-15.963 23.42-24.77m-23.42 24.77c.834 3.495.484 7.039-3.061 10.845-4.122 4.424-10.008 7.114-5.51 10.055 8.622 5.639 17.938-.833 26.685-12.053m20.994-80.478c.037-3.266-.677-6.332-2.883-8.36m2.883 8.36c.595-6.367 9.873-15.394 13.249-18.628 4.539-4.35 12.582-9.367 19.063-9.07m0 0c3.182.146 5.988 1.572 7.819 4.985.338.63.623 1.274.857 1.93m-8.676-6.915c.078-.883.06-1.743-.069-2.567-1.314-8.384-14.251-3.005-20.24.21M167.126 89.72a7.532 7.532 0 00-.625-.517c-1.616-1.2-3.427-1.985-5.378-2.428m6.003 2.945c-4.006 2.234-7.921 1.217-6.003-2.945m6.003 2.945c.331-.185.662-.391.99-.62 3.558-2.476 15.417-15.466 13.896-21.075m-20.889 18.75c-8.779-1.992-20.426 2.96-30.232 8.517m30.232-8.517c.147-.32.329-.659.547-1.015 4.176-6.81 11.637-12.726 19.118-17.054a42.9 42.9 0 011.224-.681m0 0c-.462-1.701-2.154-2.724-5.684-2.567-4.473.198-8.49 1.51-12.269 3.352m-33.168 26.482c-6.154 3.488-11.583 7.215-15.123 9.613-8.697 5.894-16.192 12.63-23.232 19.88-.724.745-2.52 2.44-4.069 4.26m42.424-33.753c-3.275 8.35-12.908 17.056-19.376 22.971-1.096 1.003-8.287 7.208-14.781 11.768m34.157-34.739c.527-1.343.89-2.678 1.048-3.99.698-5.787-4.083-6.213-9.969-4.663m-33.503 42.406c-1.72 2.023-3.136 4.2-2.434 5.401a.988.988 0 00.233.273m2.201-5.674c2.916-15.796 20.688-30.431 33.503-42.406m-33.503 42.406a24.235 24.235 0 00-.412 4.458m8.679-3.472c-2.232 1.567-4.382 2.94-6.174 3.84m6.174-3.84c.351-.065.704-.12 1.059-.167m-1.06.167c-3.09.567-6.041 1.819-8.678 3.472M121.97 86.64c-7.166 1.888-15.968 6.703-18.52 8.34-13.22 8.479-29.305 21.735-35.73 34.812-2.971 6.049-6.988 11.32-11.093 16.945-2.434 3.334-6.084 7.517-5.882 11.422.122 2.347 6.393 4.689 8.896 4.925 4.505.425 10.837 3.079 14.133 5.582 4.19 3.182 8.273 6.507 12.43 9.712 3.617 2.79 6.944 7.096 11.587 8.788.315.115.62.236.917.362M121.97 86.64a219.115 219.115 0 003.167-3.012c6.099-5.937 12.793-11.71 18.507-17.962M86.266 134.72c.135.11.3.183.493.225m-.493-.225a29.175 29.175 0 011.789-1.216m-1.79 1.216a30.1 30.1 0 00-1.555 1.226m3.345-2.442c0 .261.006.522.015.784l.007.161m-1.318.496c.357.076.81.04 1.34-.092m-1.34.092c.436-.184.876-.35 1.318-.496m-1.318.496a21.34 21.34 0 00-2.05 1.001m0 0a28.48 28.48 0 00-4.225 4.399c-2.898 3.776-7.731 12.135-1.81 15.04 2.805 1.376 5.859.996 8.68-.26m.745-20.272c.698-.174 1.531-.513 2.46-.981m-2.46.981a16.746 16.746 0 01-.022-.404m.022.404c.042.658.118 1.287.223 1.887m-.245-2.291a13.462 13.462 0 012.483-.577m0 0c.284-.036.567-.062.85-.075m-3.088 2.943c.973 5.559 4.507 8.671 8.738 9.447m-8.738-9.447a24.143 24.143 0 013.087-2.943m-3.087 2.943c-1.232 1.415-2.215 2.931-2.861 4.51-1.797 4.396-2.338 10.733 1.893 13.875m4.055-21.328c1.09-.052 2.157.076 3.165.431 5.897 2.077 4.873 7.653 2.486 11.959m-5.65-12.39c1.909-1.535 4.093-2.869 6.383-3.932m0 0c2.073-.961 4.232-1.7 6.349-2.159 5.612-1.218 12.275 1.449 10.251 6.886-1.75 4.698-4.804 8.023-8.228 9.918m-8.372-14.645a19.295 19.295 0 013.995-.111c6.953.54 5.986 10.581 4.377 14.756m-7.457 43.018c9.795 4.159 9.97 14.331 13.129 22.745 2.602 6.93 3.992 12.382 7.982 18.641 1.237 1.939 2.025 6.559 5.15 6.991 2.335.323 4.687-1.423 6.461-3.439m-32.722-44.938a579.997 579.997 0 012.267 4.853c1.661 3.619 4.618 6.764 6.229 10.246 2.108 4.557 4.636 8.321 4.905 13.42.293 5.561.431 10.548 1.892 15.941.851 3.14 2.033 6.748 1.8 10.05-.162 2.299-1.538 7.488.981 9.079 2.506 1.582 10.171-11.322 10.743-12.196.935-1.428 2.505-4.089 3.905-6.455m12.214-166.8c.99-.168 1.876-.227 2.57-.135m-2.57.135c-2.978.506-6.89 2.003-9.296 3.361-3.992 2.252-8.566 5.801-13.208 7.096-5.729 1.598-10.776 2.877-15.688 6.292-12.276 8.533-22.709 19.658-31.998 30.36-11.417 13.154-16.964 29.6-30.397 41.592-2.263 2.021-3.377 1.316-3.698-1.153-.744-5.721 3.418-11.355 6.911-16.24 6.851-9.579 12.267-21.117 20.5-29.882 6.747-7.183 13.84-14.422 21.55-20.911 8.125-6.838 18.556-9.084 28.49-13.14 7.919-3.235 16.118-5.72 23.698-9.589 1.409-.719 10.161-6.229 6.64-1.857a85.851 85.851 0 01-3.505 4.07zm-12.214 166.8c1.225-1.393 2.174-2.913 2.654-3.972.967-2.136-.674.625-2.654 3.972zm22.891-87.524c5.226-6.563 10.11-13.292 14.871-19.876 3.643-5.037 7.222-10.162 10.344-15.419l.015-.025c.204-.341 1.813-3.033-.033-1.187-7.792 7.788-13.067 17.86-18.791 26.618l-.417.639a825.457 825.457 0 00-5.989 9.25zm0 0c-4.194 6.603-8.174 13.274-11.503 20.195-1.8 3.741-13.841 22.085-1.269 17.138 2.586-1.018 5.071-2.277 7.466-3.716m0 0c10.576-6.352 19.395-16.18 27.404-23.958 12.686-12.32 23.68-25.674 36.167-38.109 3.158-3.146 3.179-2.458 1.611.651-3.34 6.626-7.619 12.972-11.667 19.342-10.694 16.825-22.154 33.628-29.577 51.541-2.081 5.021-5.903 15.66 3.737 7.344 11.446-9.874 19.319-22.938 27.509-34.59.7-.996 12.79-16.941 12.914-16.717 2.153 3.882-1.665 11.622-1.367 15.968.236 3.428 2.834 6.009 6.362 2.497 5.364-5.341 8.128-13.861 10.365-20.68m-83.458 36.711c16.184-20.76 30.421-57.771 34.713-64.378 1.274-1.961 3.186-3.509 5.482-4.777m43.263 32.444c.261-.795.515-1.567.765-2.308 1.97-5.846 6.118-15.713 3.139-21.503-2.245-4.363-7.151 7.097-7.592 8.189-1.779 4.405-5.463 11.203-2.795 15.596 1.58 2.602 3.967 2.026 6.483.026zm0 0c4.908-3.899 10.301-13.213 11.135-14.927.265-.544.774-2.087 1.324-4.188m-55.722-13.329c1.201-4.421 3.199-8.94 4.106-10.861 3.343-7.076 8.881-17.18 17.681-21.244m-21.787 32.105c-1.209 4.448-1.611 8.797.713 10.303 5.879 3.811 12.649-9.535 15.387-15.548m-16.1 5.245c4.524-2.499 10.539-3.91 16.1-5.245m39.622 18.574l.016-.061m-.016.061c-1.59-.594-2.94-2.311-3.572-3.59a30.62 30.62 0 01-.341-.707m3.913 4.297l.103.037m-.087-.098c.42-1.612.864-3.546 1.24-5.606m-1.24 5.606c-1.663-1.891-2.603-4.521-3.094-6.886m3.094 6.886l.087.098m-4.016-4.334c-.435.689-1.02.928-1.803.411-1.66-1.095-3.137-3.69-3.96-6.653m5.763 6.242c.383-.606.65-1.558.835-2.65m-.835 2.65a41.695 41.695 0 01-2.036-5.347m6.052 9.681c1.166.396 2.453.178 3.676-1.259 2.679-3.145 2.392-7.543 1.627-11.13m-5.303 12.389c.749.827 1.64 1.505 2.699 1.947 3.253 1.358 3.688-2.71 3.7-4.573m-5.246-3.078c.902-4.935 1.42-10.595.313-14.279m-.313 14.279c-1.82.346-2.422-4.252-3-7.424-.257-1.408-.611-2.659-1.051-3.768m4.051 11.192c.812-.153 1.865-1.288 3.266-3.968.33-.631.618-1.653.884-2.717m-8.484 5.405c.52-3.085.375-7.282.302-7.882a27.651 27.651 0 00-.192-1.307m-.11 9.189a22.844 22.844 0 01-.356-2.265c-.069-.644-.312-2.285-.383-4.121m5.386-6.613c-.655-2.179-1.879-3.667-3.927-3.905m3.927 3.905c2.199 1.172 2.962 4.085 3.46 6.01.131.504.26 1.035.377 1.584m-3.837-7.594c-.614-.327-1.34-.518-2.203-.515-.73.003-1.302.251-1.747.672m-.414 2.93c-.048.211-.106.454-.173.723m.173-.723c.065-.286.113-.51.143-.652.114-.544.211-1.332.271-2.278m-.414 2.93a14.803 14.803 0 00-.564-1.249m8.765 5.756c.064-.258.127-.518.189-.776m-7.953-10.723c-.847-.098-1.834.018-2.981.386m2.981-.386a37.86 37.86 0 01-.023 4.062m.023-4.062c-.095-2.029-.353-4.212-.858-6.152m.835 10.214c-.439.415-.755.998-.978 1.681m-1.98-5.357c-.284.091-.578.198-.882.32a5.965 5.965 0 00-1.125.601m2.007-.921a26.262 26.262 0 011.935 5.268m-1.935-5.268a22.21 22.21 0 00-2.084-3.402m4.207-3.136c-1.602-.033-3.038 1.294-4.207 3.136m4.207-3.136c1.196.025 2.484.808 3.823 2.7 2.583 3.652 4.131 8.945 4.988 14.175m-8.811-16.875c-.69-2.65-1.841-4.845-3.664-5.567m-.466 13.026a5.805 5.805 0 00-1.221 1.122m1.221-1.122a10.911 10.911 0 00-1.56-.792m1.56.792c1.593.981 2.93 2.397 3.942 4.347m0 0l.032.13m-.032-.13l.045.089m-4.064-8.76a20.189 20.189 0 00-.982-1.212m.982 1.213c-.594.936-1.119 2.005-1.561 3.095m.417 2.35c-2.142 2.612-2.172 7.055-1.109 10.883m1.109-10.883l-.339-1.915m.339 1.915c.7 3.945 1.432 7.934 2.618 11.778m-2.957-13.692l-.078-.436m.078.436a8.176 8.176 0 00-.217-.087m-.553 12.884c-1.283-1.96-.974-5.086-.887-7.032.061-1.372.578-3.632 1.44-5.852m-.553 12.884c.303.462.694.86 1.198 1.162.964.577 1.806.372 2.529-.267m0 0c.891-.789 1.6-2.237 2.132-3.689m-5.306-10.09c.045-.117.092-.233.139-.349m-.139.349a12.397 12.397 0 00-.885-.306m7.04 7.593a27.987 27.987 0 00-.404-1.931m.404 1.931a28.573 28.573 0 01-.849 2.803m0 0c-.062-1.608.008-3.366.445-4.734m0 0l.013-.041m-5.046-9.972a21.41 21.41 0 00-.431-.474c-.841-.893-.655 1.37-.433 3.006m.864-2.532a41.8 41.8 0 01-.864 2.532m.864-2.532c.756-2.472 1.293-5.043 1.525-7.49m-2.104 11.798l-.05-.275c-.017-.098-.13-.73-.235-1.5m0 0a39.626 39.626 0 01-.739 1.818m3.128-11.841c-1.292-.512-2.923-.285-4.966 1.043-4.001 2.6-5.965 6.627-7.414 10.501m12.38-11.544c.68-7.164-1.251-13.26-7.932-12.693-2.731.232-5.323 1.35-7.726 3.043m12.53 21.491c-1.838 4.209-4.25 7.614-6.695 8.794-5.119 2.471-3.357-6.878-2.876-8.22.105-.289.21-.58.319-.871m9.252.297c-2.683-.814-5.838-.812-9.252-.297m25.762 21.437c.001-.095 0-.184-.001-.267a71.406 71.406 0 00-.906-10.272m.907 10.539c2.351 1.008 4.935 2.45 6.043-.512.58-1.553 4.965-14.199 2.05-14.801-.193-.039-.869 7.833-.986 8.53-.402 2.402-2.413 2.623-3.836.668-1.656-2.276-1.558-4.979-2.625-7.399-.562-1.274-1.02.76-1.553 2.975m.907 10.539a17.59 17.59 0 00-.831-.334m-24.931-21.103c-2.437.367-5.008.996-7.633 1.775m4.355-22.97c-5.678 4-10.301 11.215-13.207 17.558m13.207-17.557c.76.798 1.271 1.862 1.463 3.19.863 5.993-1.712 13.578-5.818 19.779m4.355-22.97c-1.824-1.917-5.08-2.313-8.77-1.21-.906.271-1.782.606-2.627.997m7.042 23.183c-1.598 2.415-3.429 4.62-5.379 6.44-3.715 3.466-7.202.652-6.577-2.949m11.956-3.491a113.07 113.07 0 00-4.459 1.433c-2.214.759-4.791 1.405-7.497 2.058m3.104-8.903a55.988 55.988 0 00-1.764 4.3m1.764-4.3a101.213 101.213 0 01-1.764 4.3m1.764-4.3c2.247-5.904 3.78-12.256 1.81-17.771m-3.574 22.07c-.599 1.662-1.039 3.167-1.304 4.415a6.942 6.942 0 00-.036.189m1.34-4.603c-.33.761-.661 1.508-.984 2.237-.183.411-.573 1.33-1.129 2.552m.773-.186l-.773.186m-41.251-35.348c-2.665 1.299-5.211 2.861-7.716 4.483-1.635 1.06-9.14 5.837-8.286 7.963.952 2.368 7.051-.557 8.107-1.376 3.715-2.882 6.833-6.94 7.895-11.07zm0 0c.138-.536.241-1.074.306-1.61 1.273-10.442-10.848-5.948-18.151-1.67m0 0c-1.567.918-2.912 1.826-3.855 2.574-1.355 1.075-8.039 5.651-6.065 7.743 1.933 2.05 7.773-3.454 8.693-4.461 3.64-3.989 3.277-5.583 1.227-5.856zM97.06 146.187c2.908.533 6.145-.038 9.105-1.677m-9.105 1.677a20.31 20.31 0 01-.653 1.096c-1.754 2.749-5.185 6.119-9.053 7.842m0 0a8.59 8.59 0 002.122 1.138c8.036 3.006 14.373-6.232 16.574-11.467.038-.092.077-.188.115-.286" stroke="#EB8B2C" stroke-width="6" stroke-linecap="round"/></g><defs><clipPath id="prefix__prefix__clip0_9_250"><path fill="#fff" transform="rotate(168.664 186.588 170.249)" d="M0 0h349.579v306.478H0z"/></clipPath></defs></svg>