<svg width="136" height="35" viewBox="0 0 136 35" fill="none" xmlns="http://www.w3.org/2000/svg">
  <path
    d="M44.4571 14.1224C44.4571 11.7033 42.1047 9.134 38.0338 9.134C33.4625 9.134 28.4407 12.4874 27.6733 19.1776C26.8891 25.9345 31.0934 28.9376 35.3311 28.9376C39.5687 28.9376 41.7877 27.2859 44.0567 25.0836C42.1047 22.6311 39.5854 23.7656 39.1016 24.0159C38.5677 24.2828 37.8837 24.6499 36.4823 24.6499C34.8473 24.6499 33.1789 23.9158 33.1789 20.8626C43.6562 19.8283 44.4571 16.5416 44.4571 14.1224ZM39.2684 14.5228C39.2017 15.2736 38.9014 16.5583 33.596 17.2757C34.7138 13.3049 36.8493 13.0046 37.8336 13.0046C38.7512 13.0046 39.3352 13.722 39.2684 14.5228ZM21.517 15.1735C21.517 15.1735 19.2647 22.2474 19.0812 22.8313C19.0144 22.2307 17.3627 9.53441 17.3627 9.53441C13.5255 9.53441 11.4734 12.2705 10.3889 15.1568C10.3889 15.1568 7.65281 22.2474 7.41924 22.848C7.40256 22.2974 7.00215 15.2402 7.00215 15.2402C6.76858 11.7033 3.53194 9.5511 0.912598 9.5511L4.0825 28.7874C8.10327 28.7707 10.2722 26.0513 11.4066 23.165C11.4066 23.165 13.8258 16.9086 13.9259 16.625C13.9426 16.8919 15.661 28.7874 15.661 28.7874C19.6985 28.7874 21.8673 26.2348 23.0352 23.4486L28.691 9.5511C24.7036 9.5511 22.6014 12.2705 21.517 15.1735ZM59.2722 9.10064C56.7863 9.10064 54.8844 10.452 53.2827 12.4374V12.4207L54.7175 0.858887C51.4142 0.858887 48.7281 3.72848 48.2109 7.99951L45.7083 28.6373C47.6103 28.6373 49.629 28.0867 50.7135 26.6853C51.6811 27.9365 53.1326 28.9376 55.2848 28.9376C60.8571 28.9376 64.6777 22.4643 64.6777 16.3914C64.6444 10.8524 61.9583 9.10064 59.2722 9.10064ZM58.755 19.0274C58.1711 22.4142 56.2858 24.7166 54.4673 24.7166C52.6321 24.7166 51.8479 23.8991 51.8479 23.8991C52.1983 20.9294 52.4152 19.1109 53.0825 17.5426C53.7499 15.9743 55.3348 13.4718 56.9865 13.4718C58.6049 13.4718 59.3389 15.624 58.755 19.0274ZM78.5919 9.5511H74.7046L74.7213 9.35089C74.9882 6.81497 75.5889 5.48027 77.5742 5.26338C78.9256 5.12992 79.5262 4.4292 79.6764 3.66175C79.7932 3.06114 80.1602 0.975673 80.1602 0.975673C72.3522 0.925622 69.8997 4.29573 69.2657 9.43431L69.2491 9.5511H69.1656C67.8977 9.5511 66.4962 10.9859 66.2627 12.8044L66.1793 13.4718H68.7819L66.5963 31.5235L65.929 34.7602C66.0124 34.7602 66.1125 34.7769 66.1959 34.7769C69.8497 34.6434 72.1854 31.7571 72.7026 27.5695L74.4043 13.4718H75.6222C76.8235 13.4718 78.2249 12.2705 78.4751 10.2685L78.5919 9.5511ZM98.8126 9.21742C94.3247 9.21742 90.087 12.5208 88.7857 17.7094C87.4843 22.8981 89.453 29.0377 96.0598 29.0377C102.65 29.0377 106.454 22.6478 106.454 17.3257C106.454 12.037 102.867 9.21742 98.8126 9.21742ZM100.631 18.8606C100.398 21.213 99.3631 24.7833 96.5269 24.7833C93.674 24.7833 94.0744 20.6124 94.358 18.627C94.6583 16.5082 95.8429 13.4885 98.3955 13.4885C100.681 13.4885 100.898 16.2079 100.631 18.8606ZM128.626 15.1735C128.626 15.1735 126.374 22.2474 126.191 22.8313C126.124 22.2307 124.472 9.53441 124.472 9.53441C120.635 9.53441 118.583 12.2705 117.498 15.1568C117.498 15.1568 114.762 22.2474 114.529 22.848C114.512 22.2974 114.112 15.2402 114.112 15.2402C113.878 11.7033 110.641 9.5511 108.022 9.5511L111.175 28.7874C115.196 28.7707 117.365 26.0513 118.499 23.165C118.499 23.165 120.918 16.9086 121.002 16.625C121.035 16.8919 122.737 28.7874 122.737 28.7874C126.774 28.7874 128.943 26.2348 130.111 23.4486L135.767 9.5511C131.796 9.5511 129.694 12.2705 128.626 15.1735ZM82.2623 0.975673L78.9923 27.3526L78.325 30.6059C78.4084 30.6059 78.5085 30.6226 78.5919 30.6226C82.1122 30.5726 84.6147 27.4861 85.0819 23.5988L86.9671 8.46666C87.5344 3.84527 84.7816 0.975673 82.2623 0.975673Z"
    fill="#33475B" />
</svg>