<svg width="126" height="29" viewBox="0 0 126 29" fill="none" xmlns="http://www.w3.org/2000/svg">
  <path
    d="M21.092 28.8221L12.8427 28.6696C10.1717 28.6165 7.49414 28.7226 4.87564 28.1721C0.892092 27.3497 0.609897 23.3169 0.314576 19.9342C-0.0923096 15.1786 0.0651947 10.3367 0.833028 5.62077C1.26616 2.9743 2.97246 1.3957 5.61065 1.22325C14.5162 0.599773 23.4808 0.672733 32.3667 0.964574C33.3051 0.991105 34.2502 1.13703 35.1755 1.30284C39.7431 2.11204 39.8547 6.68201 40.15 10.529C40.4453 14.4158 40.3206 18.3225 39.7563 22.1827C39.3034 25.3797 38.4372 28.0594 34.7817 28.318C30.201 28.6563 25.7253 28.9283 21.1314 28.842C21.1314 28.8221 21.1051 28.8221 21.092 28.8221V28.8221ZM16.2422 20.7302C19.6942 18.7271 23.0805 16.7572 26.5128 14.7673C23.0542 12.7642 19.6745 10.7943 16.2422 8.80449V20.7302Z"
    fill="#33475B" />
  <path
    d="M106.318 25.1875C106.16 25.8375 106.022 26.3482 105.885 26.8921H102.656V1.72058H106.423V11.0065C106.62 10.7545 106.718 10.6484 106.803 10.5356C107.446 9.64017 108.28 9.05648 109.356 8.83096C111.069 8.49269 112.533 9.25546 113.051 10.9203C113.386 11.955 113.602 13.0627 113.628 14.1438C113.681 16.923 113.642 19.6955 113.543 22.4747C113.504 23.3237 113.248 24.1926 112.926 24.9885C111.87 27.6151 108.418 28.0131 106.705 25.738C106.6 25.5987 106.501 25.4462 106.318 25.1875V25.1875ZM106.501 18.2628V22.866C106.501 23.6155 106.895 24.0732 107.637 24.2456C108.365 24.4181 108.956 24.1329 109.251 23.4497C109.376 23.1645 109.501 22.866 109.507 22.5675C109.579 19.7552 109.645 16.9429 109.665 14.124C109.665 13.6 109.54 13.0561 109.382 12.5453C109.087 11.6234 108.273 11.3514 107.473 11.8887C106.869 12.2999 106.501 12.8836 106.501 13.6597V18.2628ZM96.2637 9.18913H100.208V26.9054H97.1299C97.0184 26.2355 96.9068 25.5457 96.7756 24.7365C96.5656 25.0482 96.4409 25.2472 96.3096 25.4462C95.2858 26.9386 93.8355 27.4493 92.1226 27.1773C90.6592 26.9386 89.7798 25.7977 89.5829 23.9273C89.5238 23.3701 89.4976 22.8063 89.4976 22.2492C89.4844 18.1036 89.4976 13.9449 89.4976 9.79935V9.17587H93.4877V9.89885C93.4877 13.9051 93.4745 17.9047 93.5008 21.9109C93.5008 22.4813 93.5599 23.0716 93.6583 23.642C93.7699 24.2257 94.1899 24.438 94.7543 24.3982C95.6665 24.3252 96.2965 23.642 96.2965 22.7267V9.97181C96.2637 9.71313 96.2637 9.47435 96.2637 9.18913V9.18913ZM69.1074 9.17587H73.0712V9.92538C73.0712 13.9117 73.0581 17.8914 73.0843 21.8644C73.0843 22.4349 73.1368 23.0252 73.255 23.5823C73.4059 24.239 73.7865 24.4512 74.4362 24.365C75.3353 24.239 75.88 23.6089 75.8866 22.6869V9.99834V9.2024H79.8308V26.9054H76.766C76.6544 26.2487 76.5429 25.5722 76.3985 24.7166C76.2016 25.015 76.09 25.1875 75.9785 25.3666C74.9547 26.8855 73.5175 27.4426 71.7652 27.1707C70.3608 26.9585 69.5011 25.9105 69.2386 24.1926C69.1664 23.6553 69.1139 23.1247 69.1139 22.5874C69.1008 18.2827 69.1008 13.9581 69.1008 9.65343L69.1074 9.17587ZM67.0729 18.6343C67.0598 19.2312 67.0204 19.8282 66.9876 20.4251C66.8367 22.216 66.7645 24.7564 65.3338 26.063C64.4216 26.8855 63.2666 27.184 62.0722 27.2238C61.5406 27.237 61.0025 27.237 60.4709 27.1641C57.9574 26.7794 56.7892 25.6584 56.3692 22.866C55.8902 19.6425 55.8508 16.3658 56.4217 13.1423C57.0124 9.80599 59.0468 8.62534 62.21 8.84423C65.1632 9.05648 66.4823 11.0132 66.8301 13.7989C67.0204 15.3975 67.1123 17.0159 67.0729 18.6343V18.6343ZM63.0566 18.024C63.0566 16.8898 63.0828 15.749 63.0435 14.6148C63.0172 13.9581 62.9319 13.2948 62.7941 12.6448C62.6366 11.8953 62.1641 11.5372 61.5734 11.5504C60.9959 11.5637 60.589 11.9219 60.379 12.6183C60.3068 12.877 60.2281 13.1423 60.2281 13.401C60.2281 15.1786 60.2149 16.9628 60.2018 18.7404C60.1887 20.3986 59.9787 22.1364 60.4971 23.7216C60.6546 24.2058 61.0615 24.4711 61.5931 24.4711C62.1116 24.4711 62.4528 24.2125 62.6431 23.7482C62.7941 23.39 62.9253 22.9987 62.9253 22.614C62.9713 21.0884 63.0566 19.5562 63.0566 18.024ZM50.581 14.6877C50.9288 12.9698 51.2569 11.2917 51.6179 9.607C52.0707 7.4646 52.576 5.3222 53.0223 3.17317C53.1338 2.64918 53.3438 2.52315 53.836 2.53642C54.8926 2.57621 55.9689 2.54968 57.0977 2.54968C56.7302 3.91604 56.3692 5.21608 56.0148 6.49621C54.8926 10.5157 53.7704 14.5485 52.6613 18.5812C52.576 18.8929 52.5366 19.2312 52.5366 19.5629C52.5235 21.765 52.5366 23.9604 52.5366 26.1625V26.8789H48.6843C48.6712 26.6799 48.645 26.4809 48.645 26.2819C48.645 25.0349 48.5465 23.7813 48.6581 22.5476C48.9403 19.5828 48.0084 16.8567 47.2537 14.0974C46.2562 10.4494 45.2455 6.78805 44.248 3.14C44.1955 2.96755 44.1758 2.78183 44.1233 2.56958H48.0543C48.8812 6.5957 49.7147 10.6218 50.581 14.6877ZM125.953 19.3108H119.312C119.384 20.6573 119.41 21.9374 119.548 23.2043C119.646 24.0864 120.126 24.4645 120.88 24.4711C121.668 24.4844 122.127 24.0864 122.311 23.2109C122.37 22.9257 122.409 22.6405 122.436 22.3486C122.462 22.09 122.475 21.8114 122.495 21.4399C123.617 21.4996 124.713 21.566 125.796 21.6124C126.426 23.5028 125.29 25.9304 123.381 26.6799C121.878 27.2768 120.336 27.2768 118.8 26.8192C117.665 26.4809 116.818 25.7513 116.437 24.6303C116.083 23.5823 115.748 22.4879 115.676 21.3935C115.479 18.694 115.407 15.9679 115.814 13.2617C115.886 12.8107 116.011 12.3795 116.149 11.9418C116.7 10.1376 117.901 9.02995 119.758 8.84423C120.769 8.74474 121.812 8.78453 122.81 8.95699C124.424 9.2422 125.284 10.4162 125.658 11.955C125.828 12.678 125.953 13.4209 125.979 14.1571C125.986 15.8485 125.953 17.5266 125.953 19.3108ZM122.18 16.9827C122.18 15.6495 122.193 14.3959 122.167 13.1357C122.167 12.8372 122.055 12.5254 121.943 12.2402C121.72 11.6831 121.254 11.5305 120.696 11.5305C120.139 11.5305 119.784 11.8157 119.646 12.3265C119.226 13.8586 119.364 15.424 119.377 16.996C120.381 16.9827 121.294 16.9827 122.18 16.9827V16.9827Z"
    fill="#33475B" />
  <path d="M82.8755 5.80002H78.9707V2.603H90.6259V5.78012H86.7474V26.8791H82.882L82.8755 5.80002Z" fill="#33475B" />
</svg>