<svg width="110" height="37" viewBox="0 0 110 37" fill="none" xmlns="http://www.w3.org/2000/svg">
  <path
    d="M104.467 7.41112H99.7141V0.757324H89.2781L84.4788 7.41112H75.9505L73.0989 10.2627V7.41112H66.4451V0.757324H45.5332V7.41112H16.1139L11.3136 0.757324H0.857666V23.5703L14.1653 36.8779H27.4729V33.0758L31.275 36.8779H56.9397V33.0758L60.7418 36.8779H73.0989V33.0758L76.9011 36.8779H100.665L109.22 28.3231V12.1638L104.467 7.41112ZM17.0169 16.9165H10.3631V18.8176H17.0169V26.422H6.56092L2.75875 22.6198V2.65841H10.3631V9.31221H17.0169V16.9165ZM45.5332 26.422H22.7201L18.918 22.6198V9.31221H26.5223V18.8176H28.4234V9.31221H36.0277V18.8176H37.9288V9.31221H45.5332V26.422ZM55.0386 26.422H47.4343V9.31221H55.0386V26.422ZM55.0386 7.41112H47.4343V2.65841H55.0386V7.41112ZM71.1978 16.9165H64.544V18.8176H71.1978V26.422H60.7418L56.9397 22.6198V2.65841H64.544V9.31221H71.1978V16.9165ZM88.3076 16.9165H80.7032V18.8176H88.3076V26.422H76.9011L73.0989 22.6198V13.1144L76.9011 9.31221H88.3076V16.9165ZM107.318 26.422H99.7141V16.9165H97.813V26.422H90.2087V2.65841H97.813V9.31221H103.516L107.318 13.1144V26.422Z"
    fill="#33475B" />
</svg>