<svg width="112" height="37" viewBox="0 0 112 37" fill="none" xmlns="http://www.w3.org/2000/svg">
  <path
    d="M13.9489 0H14.9422C18.3904 0.075763 21.7824 1.47738 24.2187 3.95862C23.3192 4.88671 22.4009 5.77693 21.5201 6.70503C20.152 5.45494 18.5029 4.48896 16.7038 4.14802C14.0426 3.5798 11.1753 4.0912 8.94522 5.6254C6.50895 7.23537 4.85979 9.96284 4.50372 12.8797C4.11017 15.7587 4.91601 18.7892 6.77132 21.0242C8.55167 23.2024 11.269 24.5662 14.0801 24.6609C16.7038 24.8124 19.4399 23.9979 21.3514 22.1417C22.8506 20.8348 23.544 18.846 23.7689 16.9141C20.658 16.9141 17.5471 16.933 14.4362 16.9141V13.0123H27.5358C28.2104 17.1982 27.2359 21.9144 24.0875 24.9071C21.9886 27.0285 19.0838 28.2785 16.1228 28.5248C13.2555 28.8089 10.2945 28.2596 7.74583 26.858C4.69113 25.2101 2.25487 22.4258 1.05548 19.1491C-0.0689501 16.1375 -0.0876906 12.7282 0.961776 9.69766C1.91754 6.93232 3.75411 4.48896 6.1154 2.78429C8.383 1.09856 11.1379 0.170467 13.9489 0Z"
    fill="#33475B" />
  <path
    d="M89.0986 0.985016H93.1091V28.0324C91.7785 28.0324 90.4292 28.0513 89.0986 28.0134C89.1174 19.0166 89.0986 10.0008 89.0986 0.985016V0.985016Z"
    fill="#33475B" />
  <path
    d="M36.4556 10.3607C38.9293 9.88722 41.6092 10.4176 43.6519 11.9139C45.5072 13.2397 46.8003 15.3232 47.1939 17.596C47.6999 20.2288 47.0627 23.1078 45.3761 25.1912C43.5582 27.5209 40.5785 28.771 37.6737 28.5816C35.0126 28.4301 32.4264 27.0853 30.8522 24.8882C29.0718 22.4638 28.6408 19.1302 29.6153 16.2891C30.5898 13.2397 33.3447 10.91 36.4556 10.3607V10.3607ZM37.0178 13.9595C36.0058 14.2246 35.0688 14.8118 34.3941 15.6452C32.5763 17.8423 32.6888 21.4221 34.694 23.4676C35.8372 24.642 37.5613 25.1912 39.1542 24.8692C40.6347 24.6041 41.9278 23.6002 42.64 22.2744C43.8768 20.0204 43.5208 16.9142 41.628 15.1527C40.4098 14.0163 38.6295 13.5428 37.0178 13.9595Z"
    fill="#33475B" />
  <path
    d="M56.3191 10.3606C59.1489 9.81129 62.2411 10.6068 64.3588 12.6145C67.807 15.7398 68.1818 21.5925 65.2396 25.1912C63.4592 27.4641 60.5732 28.7142 57.7246 28.5816C55.0072 28.5058 52.3274 27.1421 50.7157 24.8882C48.8979 22.4069 48.5043 18.9976 49.535 16.0996C50.5658 13.1449 53.2644 10.8909 56.3191 10.3606V10.3606ZM56.8813 13.9593C55.8693 14.2245 54.9323 14.8117 54.2576 15.6261C52.4585 17.7854 52.5335 21.3083 54.4638 23.3729C55.6069 24.604 57.3873 25.2102 59.0365 24.8692C60.4982 24.5851 61.81 23.6002 62.5222 22.2743C63.7403 20.0014 63.3842 16.8951 61.4727 15.1337C60.2546 13.9972 58.4742 13.5426 56.8813 13.9593Z"
    fill="#33475B" />
  <path
    d="M73.1689 11.4592C75.3241 10.0955 78.1914 9.71669 80.5152 10.891C81.2461 11.213 81.8458 11.7623 82.4267 12.3116C82.4455 11.8002 82.4267 11.2698 82.4455 10.7395C83.7011 10.7584 84.9567 10.7395 86.231 10.7584V27.4641C86.2123 29.9833 85.5751 32.6539 83.776 34.4911C81.8083 36.5178 78.7911 37.1428 76.0737 36.7261C73.1689 36.2905 70.6389 34.1502 69.5145 31.4417C70.6389 30.8924 71.8196 30.4568 72.9815 29.9454C73.6374 31.4985 74.968 32.8244 76.6359 33.1274C78.3038 33.4305 80.2341 33.0138 81.321 31.6122C82.4829 30.1727 82.4829 28.2028 82.4267 26.4413C81.5647 27.2937 80.5714 28.0513 79.372 28.3354C76.7671 29.0741 73.8998 28.1649 71.8946 26.3845C69.8706 24.6041 68.6712 21.8577 68.7836 19.1302C68.8399 16.0429 70.564 13.0692 73.1689 11.4592V11.4592ZM77.0482 13.8836C75.905 14.0731 74.8368 14.717 74.1059 15.6073C72.3443 17.7286 72.3443 21.119 74.1247 23.2025C75.1367 24.4336 76.7671 25.1155 78.3413 24.945C79.8218 24.7935 81.1898 23.8465 81.9207 22.5396C83.1576 20.3235 82.9515 17.3119 81.2835 15.38C80.2528 14.1867 78.6037 13.5995 77.0482 13.8836V13.8836Z"
    fill="#33475B" />
  <path
    d="M97.9223 12.4252C100.171 10.3038 103.638 9.58409 106.524 10.7016C109.26 11.7433 111.003 14.3761 111.884 17.0846C107.817 18.7893 103.769 20.475 99.7026 22.1797C100.265 23.2593 101.127 24.2442 102.289 24.642C103.919 25.2291 105.868 25.0208 107.236 23.9222C107.78 23.5055 108.211 22.9562 108.623 22.4259C109.654 23.1267 110.685 23.8086 111.715 24.5094C110.253 26.7255 107.798 28.2786 105.156 28.5248C102.233 28.8847 99.1216 27.7483 97.2289 25.4375C94.1179 21.8009 94.4178 15.7019 97.9223 12.4252V12.4252ZM99.9275 15.9292C99.2903 16.8573 99.0279 17.9938 99.0467 19.1113C101.764 17.9748 104.481 16.8384 107.199 15.683C106.749 14.6223 105.662 13.9783 104.556 13.8079C102.776 13.4859 100.921 14.4519 99.9275 15.9292V15.9292Z"
    fill="#33475B" />
</svg>