<svg width="138" height="27" viewBox="0 0 138 27" fill="none" xmlns="http://www.w3.org/2000/svg">
  <path
    d="M9.64308 26.3836H4.49152V13.4042H0.982178V9.17834H4.49138V6.17135C4.49138 2.60806 6.04351 0.0524902 11.1811 0.0524902C12.2677 0.0524902 13.9737 0.273849 13.9737 0.273849V4.19778H12.1819C10.3562 4.19778 9.64336 4.75905 9.64336 6.31077V9.17834H13.9053L13.5258 13.4042H9.64322L9.64308 26.3836ZM21.4635 8.84064C21.3884 8.84064 21.3112 8.84341 21.2348 8.84534C16.4579 8.84534 14.2724 12.4769 14.2724 17.632C14.2724 24.126 17.1073 26.7251 21.2721 26.7251C23.6549 26.7251 25.2204 25.7114 26.172 23.8198V26.3854H31.0718V9.18014H26.172V11.8261C25.395 10.1237 23.7857 8.86081 21.4635 8.84064ZM22.7094 12.9062C24.7157 12.9062 25.9198 14.3206 25.9198 16.7264L25.9245 19.1836C25.9245 20.8051 24.9299 22.7021 22.7094 22.7021C19.2956 22.7021 19.3868 18.9766 19.3868 17.7357C19.3868 13.5618 21.2056 12.9062 22.7094 12.9062ZM33.0506 17.7837C33.0506 15.6929 32.9517 8.85183 41.7703 8.85183C45.3103 8.85183 46.7885 9.98944 46.7885 9.98944L45.6004 13.7137C45.6004 13.7137 44.1242 12.8921 42.2006 12.8921C39.7368 12.8921 38.1647 14.3356 38.1647 16.8755L38.1675 18.6966C38.1675 21.1371 39.6843 22.7662 42.2056 22.7662C43.9581 22.7662 45.5732 21.9369 45.5732 21.9369L46.7583 25.5833C46.7583 25.5833 45.4067 26.7281 41.7951 26.7281C33.3983 26.7281 33.0508 20.5903 33.0508 17.7837H33.0506ZM75.5182 8.84534C80.2952 8.84534 82.5151 12.4769 82.5151 17.632C82.5151 24.126 79.6801 26.7251 75.5153 26.7251C73.1325 26.7251 71.3711 25.7116 70.4196 23.8198V26.3854L65.5813 26.3835V0.575626L70.7183 0.122822V11.593C71.4597 9.58624 73.8962 8.84534 75.5183 8.84534H75.5182ZM74.078 12.9062C72.0718 12.9062 70.7183 14.3206 70.7183 16.7264L70.7135 19.1836C70.7105 20.8051 71.6508 22.7021 74.078 22.7021C77.4918 22.7021 77.4006 18.9766 77.4006 17.7357C77.4006 13.5618 75.5819 12.9062 74.078 12.9062ZM55.7015 8.85957C50.2835 8.85957 47.4231 11.8451 47.4231 17.1508V18.1366C47.4231 25.0229 51.4399 26.7958 56.2288 26.7958C60.8835 26.7958 62.9904 25.48 62.9904 25.48L62.0292 21.9758C62.0292 21.9758 59.5508 23.0416 56.8447 23.0416C54.0393 23.0416 52.8328 22.3189 52.5235 19.5941H63.4011V16.7829C63.4011 11.0276 60.1909 8.85943 55.7013 8.85943L55.7015 8.85957ZM55.832 12.3684C57.7075 12.3684 58.9228 13.5308 58.856 16.2264H52.533C52.6426 13.3893 53.9532 12.3686 55.832 12.3686V12.3684ZM92.758 8.83594C87.1941 8.83594 84.265 12.0049 84.265 17.6838C84.265 25.4755 89.3141 26.7298 92.7673 26.7298C97.8225 26.7298 101.186 23.9791 101.186 17.7545C101.186 11.2759 97.4041 8.83594 92.758 8.83594V8.83594ZM92.688 12.9203C95.1345 12.9203 96.104 14.7709 96.104 16.8774V18.6885C96.104 21.2403 94.7475 22.7163 92.6787 22.7163C90.7439 22.7163 89.3841 21.3356 89.3841 18.6885V16.8774C89.3841 14.0542 91.0022 12.9203 92.688 12.9203V12.9203ZM111.419 8.83594C105.855 8.83594 102.926 12.0049 102.926 17.6838C102.926 25.4755 107.975 26.7298 111.429 26.7298C116.484 26.7298 119.847 23.9791 119.847 17.7545C119.847 11.2759 116.065 8.83594 111.419 8.83594V8.83594ZM111.349 12.9203C113.796 12.9203 114.765 14.7709 114.765 16.8774V18.6885C114.765 21.2403 113.409 22.7163 111.34 22.7163C109.405 22.7163 108.045 21.3356 108.045 18.6885V16.8774C108.045 14.0542 109.664 12.9203 111.349 12.9203V12.9203ZM121.788 26.3836V0.575626L126.94 0.122822V17.421L132.051 9.17834H137.492L132.16 17.7153L137.697 26.3836H132.241L126.94 17.9668V26.3836H121.788Z"
    fill="#33475B" />
</svg>