<svg width="160" height="160" viewBox="0 0 160 160" fill="none" xmlns="http://www.w3.org/2000/svg">
<path d="M113.333 86.6667H73.3333M113.333 60H73.3333M38.4 108.667L20 111.133L33.3333 123.133L30.2 140L46.6667 132L63.1333 140L60 123.133L73.3333 111.133L54.9333 108.667L46.6667 93.3333L38.4 108.667Z" stroke="#FF9500" stroke-width="13" stroke-linecap="round" stroke-linejoin="round"/>
<path d="M46.666 66.6667V26.6667C46.666 24.8986 47.3684 23.2029 48.6186 21.9526C49.8689 20.7024 51.5646 20 53.3327 20H113.333L139.999 46.6667V133.333C139.999 135.101 139.297 136.797 138.047 138.047C136.796 139.298 135.101 140 133.333 140H93.3327" stroke="#33475B" stroke-width="13" stroke-linecap="round" stroke-linejoin="round"/>
</svg>
