<svg width="160" height="160" viewBox="0 0 160 160" fill="none" xmlns="http://www.w3.org/2000/svg">
<path d="M93.334 140L73.334 80L53.334 140" stroke="#FF9500" stroke-width="13" stroke-linecap="round" stroke-linejoin="round"/>
<path d="M107.6 53.3333C107.991 51.6646 107.724 49.9094 106.855 48.4321C105.986 46.9548 104.582 45.869 102.933 45.4L32.0667 26.6667L21.7333 65.0667L92.7333 83.8C93.5826 84.0315 94.4693 84.0925 95.3423 83.9796C96.2152 83.8666 97.0572 83.5819 97.8195 83.1418C98.5819 82.7018 99.2495 82.1151 99.784 81.4156C100.318 80.7162 100.709 79.9179 100.933 79.0667M107.6 53.3333L100.933 79.0667M107.6 53.3333L140 62.2667L133.333 88L100.933 79.0667M33.8 20L20 71.5333" stroke="#33475B" stroke-width="13" stroke-linecap="round" stroke-linejoin="round"/>
</svg>
